<svg width="427" height="163" viewBox="0 0 427 163" fill="none" xmlns="http://www.w3.org/2000/svg">
<g clip-path="url(#clip0_103_115)">
<path fill-rule="evenodd" clip-rule="evenodd" d="M278.709 113.06C279.04 114.487 279.702 115.913 280.033 117.34C280.695 118.409 281.026 119.836 281.688 120.906C282.019 122.332 282.681 123.402 283.012 124.828C283.674 126.255 284.005 127.325 284.667 128.751C284.998 129.821 285.66 131.247 285.991 132.674C285.66 132.674 285.66 132.674 285.329 133.031C284.998 133.031 284.998 133.031 284.667 133.031C280.695 133.031 277.053 133.031 273.081 133.031C271.757 133.031 271.757 133.031 271.095 131.247C269.44 126.612 267.785 121.619 266.13 116.983C265.799 116.983 265.799 116.626 265.799 116.27C265.468 115.913 265.137 115.557 264.806 115.557C263.813 115.557 262.82 115.557 262.158 115.557C261.827 115.557 261.827 115.557 261.496 115.913C261.496 115.913 261.496 116.27 261.496 116.626C261.496 116.983 261.496 117.34 261.496 117.696C261.496 121.976 261.496 125.898 261.496 130.178C261.496 130.534 261.496 130.891 261.496 131.247C261.496 132.674 261.496 133.031 260.172 133.031C256.531 133.031 253.221 133.031 249.58 133.031C249.249 133.031 249.249 133.031 249.249 133.031C248.587 132.674 248.256 132.674 248.256 131.961C248.256 131.604 248.256 131.247 248.256 130.891C248.256 116.983 248.256 103.432 248.256 89.5238C248.256 89.1672 248.256 88.8105 248.256 88.4539C248.256 87.7407 248.587 87.7407 248.918 87.7407C249.249 87.3841 249.58 87.3841 249.911 87.3841C256.2 87.3841 262.82 87.3841 269.44 87.7407C271.757 87.7407 274.074 87.7407 276.06 88.0973C277.715 88.8105 279.371 89.1672 280.695 90.237C283.012 92.0201 284.667 94.1597 285.66 97.3693C286.322 100.935 285.991 104.502 284.667 107.711C284.005 109.137 283.012 110.207 282.019 110.921C281.026 111.634 280.364 111.99 279.371 112.704C279.04 112.704 279.04 113.06 278.709 113.06ZM265.468 97.3693C264.475 97.3693 263.482 97.3693 262.489 97.3693C261.827 97.3693 261.496 97.7259 261.496 98.4391C261.496 100.579 261.496 102.718 261.496 104.858C261.496 105.571 261.827 105.571 262.158 105.571C264.144 105.571 266.13 105.928 268.116 105.571C269.109 105.571 269.771 105.215 270.764 104.858C271.757 104.145 272.088 103.075 272.088 101.649C272.088 101.292 272.088 101.292 272.088 100.935C272.088 99.5089 271.426 98.7957 270.433 98.0825C269.771 97.7259 269.109 97.3693 268.447 97.3693C267.454 97.3693 266.461 97.3693 265.468 97.3693Z" fill="#FCFDFF"/>
<path fill-rule="evenodd" clip-rule="evenodd" d="M425.014 132.674C424.683 133.031 424.352 133.031 424.021 133.031C423.359 133.031 422.697 133.031 422.035 133.031C418.725 133.031 415.746 133.031 412.436 133.031C412.105 133.031 412.105 133.031 411.774 133.031C411.112 133.031 410.45 132.674 410.119 131.604C408.464 126.612 406.809 121.976 404.822 116.983C404.491 115.557 404.491 115.557 403.167 115.557C402.505 115.557 401.843 115.557 401.181 115.557C400.519 115.557 400.519 115.913 400.519 116.27C400.519 116.626 400.519 116.983 400.519 117.34C400.519 121.976 400.519 126.612 400.519 130.891C400.519 131.247 400.519 131.604 400.519 131.961C400.519 132.674 400.188 132.674 399.857 132.674C399.526 133.031 399.526 133.031 399.195 133.031C395.554 133.031 392.244 133.031 388.603 133.031C388.272 133.031 387.941 133.031 387.61 132.674C387.279 131.961 387.279 131.247 387.279 130.891C387.279 120.549 387.279 110.207 387.279 99.8655C387.279 96.656 387.279 93.0899 387.279 89.5238C387.279 89.1672 387.279 88.8105 387.279 88.4539C387.279 87.7407 387.61 87.7407 387.941 87.7407C388.272 87.3841 388.603 87.3841 388.934 87.3841C395.223 87.3841 401.843 87.3841 408.464 87.7407C410.781 87.7407 413.098 87.7407 415.084 88.0973C416.739 88.8105 418.394 89.5238 419.718 90.237C424.683 93.8031 425.676 99.5089 424.683 104.858C424.021 107.711 422.697 109.851 420.38 111.277C419.718 111.99 419.056 112.347 418.394 112.704C418.394 112.704 418.063 113.06 417.732 113.06C417.732 113.773 418.063 114.13 418.063 114.487C419.387 117.696 420.711 121.262 422.035 124.472C423.028 126.968 423.69 129.108 424.683 131.604C424.683 131.961 425.014 132.317 425.014 132.674ZM400.85 105.571C400.85 105.571 400.85 105.571 401.181 105.571C403.167 105.571 405.153 105.928 407.14 105.571C408.133 105.571 409.126 105.215 409.788 104.858C410.781 103.788 411.443 102.718 411.443 101.292C411.112 99.8655 410.781 98.7957 409.788 98.0825C409.126 97.7259 408.133 97.3693 407.471 97.3693C405.484 97.3693 403.498 97.3693 401.181 97.3693C400.519 97.3693 400.519 97.7259 400.519 98.4391C400.519 98.4391 400.519 98.4391 400.519 98.7957C400.519 100.579 400.519 102.718 400.519 104.502C400.519 104.858 400.519 105.215 400.85 105.571Z" fill="#FCFDFF"/>
<path fill-rule="evenodd" clip-rule="evenodd" d="M291.618 87.7407C291.949 87.7407 292.28 87.7407 292.28 87.3841C292.611 87.3841 292.942 87.3841 293.604 87.3841C298.569 87.3841 303.865 87.3841 309.161 87.3841C311.147 87.3841 313.133 87.7407 315.119 87.7407C317.436 87.7407 319.422 88.4539 321.078 89.8804C324.057 92.0201 325.712 95.2296 326.043 99.5089C326.043 103.432 324.388 106.285 321.74 108.068C321.078 108.424 320.746 108.781 320.084 108.781C319.753 109.137 319.753 109.137 319.422 109.137C319.753 109.494 320.084 109.494 320.415 109.851C321.74 110.207 323.064 110.921 324.388 111.99C325.712 113.417 326.374 115.2 326.705 116.983C327.367 120.549 326.705 124.115 325.381 126.968C324.057 129.464 322.402 130.891 320.084 131.604C318.76 132.317 317.105 132.317 315.45 132.674C313.795 132.674 312.14 133.031 310.485 133.031C304.858 133.031 298.9 133.031 293.273 133.031C292.942 133.031 292.611 133.031 292.28 132.674C291.618 132.674 291.618 132.674 291.287 131.961C291.287 131.604 291.287 131.247 291.287 130.891C291.287 117.34 291.287 103.432 291.287 89.5238C291.287 88.8105 291.287 88.4539 291.618 87.7407ZM303.865 114.843C303.534 115.2 303.534 115.557 303.534 115.913C303.534 117.696 303.534 119.479 303.534 121.262V121.619C303.534 122.332 303.865 122.689 304.527 122.689C304.527 122.689 304.858 122.689 305.189 122.689C306.513 122.689 307.837 122.689 309.161 122.689C309.823 122.689 310.485 122.689 311.147 122.332C311.478 122.332 312.14 121.976 312.471 121.976C313.464 121.262 314.126 120.192 314.126 118.766C314.126 117.34 313.795 116.27 312.471 115.557C312.471 115.2 312.14 115.2 311.809 114.843C311.147 114.843 310.485 114.843 309.823 114.843C308.168 114.487 306.513 114.487 304.858 114.487C304.527 114.487 304.196 114.843 303.865 114.843ZM307.175 104.858C308.168 104.858 308.83 104.858 309.823 104.858C310.154 104.858 310.485 104.858 310.816 104.502C311.809 104.502 312.471 103.788 312.802 103.075C313.795 101.649 313.795 98.7957 311.809 98.0825C311.147 97.7259 310.485 97.3693 310.154 97.3693C308.168 97.3693 306.182 97.3693 304.196 97.3693C303.865 97.3693 303.534 97.7259 303.534 98.4391C303.534 100.222 303.534 102.005 303.534 103.788C303.534 104.502 303.865 104.858 304.527 104.858C305.52 104.858 306.513 104.858 307.175 104.858Z" fill="#FCFDFF"/>
<path fill-rule="evenodd" clip-rule="evenodd" d="M168.814 132.674C168.483 132.317 168.483 132.317 168.483 131.961C168.483 131.604 168.483 131.247 168.483 130.891C168.483 116.983 168.483 103.432 168.483 89.5238C168.483 89.1672 168.483 88.4539 168.814 87.7407C169.145 87.3841 169.476 87.3841 170.138 87.3841C171.462 87.3841 172.786 87.3841 174.11 87.3841C178.413 87.3841 182.716 87.3841 187.019 87.3841C188.674 87.3841 190.66 87.7407 192.316 87.7407C193.971 87.7407 195.295 88.0973 196.619 88.8105C200.591 90.5936 202.577 94.1597 202.908 98.7957C203.239 102.005 202.246 104.858 200.26 106.998C199.267 107.711 198.605 108.424 197.612 108.781C197.281 108.781 196.95 109.137 196.619 109.137C196.619 109.494 196.95 109.494 196.95 109.494C197.943 109.851 198.936 110.207 199.598 110.921C202.246 112.347 203.901 114.843 203.901 118.409C204.232 122.332 203.239 125.898 201.253 128.751C200.26 130.178 199.267 130.891 197.943 131.247C196.95 131.961 195.626 132.317 194.302 132.317C192.316 132.674 190.329 133.031 188.343 133.031C182.385 133.031 176.427 133.031 170.138 133.031C169.807 133.031 169.145 133.031 168.814 132.674ZM184.371 114.487C184.04 114.487 183.378 114.487 183.047 114.487C182.385 114.487 182.054 114.487 181.392 114.843C181.061 114.843 180.73 114.843 180.73 115.557V115.913C180.73 117.696 180.73 119.479 180.73 121.262C180.73 122.332 180.73 122.689 181.723 122.689C183.378 122.689 185.033 122.689 186.688 122.689C187.35 122.689 188.012 122.332 188.674 122.332C189.336 121.976 190.329 121.619 190.66 120.549C191.323 119.836 191.323 119.123 191.323 118.409C190.991 116.626 190.329 115.557 189.005 115.2C188.343 114.843 187.681 114.843 187.019 114.843C186.026 114.487 185.364 114.487 184.371 114.487ZM184.371 104.858C185.033 104.858 185.695 104.858 186.357 104.858C187.019 104.858 187.35 104.858 188.012 104.502C189.005 104.502 189.998 103.788 190.329 102.362C190.991 100.579 190.329 98.4391 188.674 97.7259C188.343 97.7259 187.681 97.3693 187.35 97.3693C185.364 97.3693 183.378 97.3693 181.392 97.3693C180.73 97.3693 180.73 97.7259 180.73 98.4391C180.73 99.8655 180.73 100.935 180.73 102.362C180.73 102.718 180.73 103.432 180.73 103.788C180.73 104.502 181.061 104.502 181.392 104.858C181.723 104.858 181.723 104.858 182.054 104.858C183.047 104.858 183.709 104.858 184.371 104.858Z" fill="#FCFDFF"/>
<path fill-rule="evenodd" clip-rule="evenodd" d="M379.335 104.858C379.335 105.215 379.335 105.571 379.335 105.928C379.335 108.424 379.335 110.921 379.335 113.06C379.335 113.417 379.335 113.773 379.335 113.773C379.335 114.487 379.335 114.487 378.673 114.487C378.342 114.843 378.011 114.843 377.68 114.843C373.708 114.843 369.736 114.843 365.433 114.843C365.102 114.843 364.771 114.843 364.44 114.843C364.109 114.843 364.109 114.843 364.109 115.2C364.109 115.557 364.109 115.557 364.109 115.913C364.109 117.34 364.109 119.123 364.109 120.549C364.109 120.906 364.109 120.906 364.109 121.262C364.109 121.619 364.109 121.619 364.44 121.976C364.771 121.976 365.102 121.976 365.433 121.976C370.729 121.976 376.025 121.976 381.321 121.976C381.652 121.976 382.314 121.976 382.645 121.976C382.976 121.976 382.976 122.332 382.976 122.689C382.976 122.689 383.307 123.045 383.307 123.402C383.307 126.255 383.307 128.751 383.307 131.247C383.307 132.674 382.976 133.031 381.652 133.031C378.673 133.031 375.694 133.031 372.715 133.031C366.095 133.031 359.474 133.031 352.854 133.031C352.192 133.031 351.861 133.031 351.199 132.674C351.199 132.317 351.199 132.317 351.199 131.961C351.199 131.604 351.199 131.247 351.199 130.891C351.199 116.983 351.199 103.432 351.199 89.5238C351.199 89.1672 350.868 88.4539 351.199 87.7407C351.53 87.7407 351.861 87.7407 351.861 87.7407C352.192 87.3841 352.854 87.3841 353.185 87.3841C362.454 87.3841 371.722 87.3841 381.321 87.3841C381.652 87.3841 381.983 87.3841 382.314 87.7407C382.976 87.7407 382.976 87.7407 383.307 88.4539C383.307 88.8105 383.307 89.1672 383.307 89.1672C383.307 91.6635 383.307 94.1597 383.307 96.656C383.307 98.0825 382.976 98.0825 381.652 98.0825C376.356 98.0825 371.06 98.0825 365.764 98.0825C365.433 98.0825 365.102 98.0825 364.771 98.0825C364.109 98.4391 364.109 98.4391 364.109 99.1523C364.109 100.222 364.109 101.292 364.109 102.362C364.109 102.718 364.109 103.075 364.109 103.788C364.109 104.145 364.109 104.502 364.771 104.502C365.102 104.502 365.433 104.502 365.764 104.502C369.736 104.502 373.708 104.502 377.68 104.502C378.342 104.502 378.673 104.502 379.335 104.858Z" fill="#FCFDFF"/>
<path fill-rule="evenodd" clip-rule="evenodd" d="M245.277 132.674C244.946 132.674 244.615 133.031 244.284 133.031C240.643 133.031 236.671 133.031 233.029 133.031C232.367 133.031 232.036 132.674 231.705 131.604C231.043 129.821 230.712 127.681 230.05 125.542C230.05 125.185 229.719 124.828 229.719 124.472C229.719 124.115 229.388 123.759 229.057 123.759C228.726 123.759 228.395 123.759 228.395 123.759C225.416 123.759 222.437 123.759 219.789 123.759C218.465 123.759 218.465 123.759 217.803 125.185C217.472 127.325 216.81 129.464 216.148 131.247C216.148 131.604 216.148 131.961 215.817 132.317C215.817 132.674 215.486 132.674 215.155 132.674C214.824 133.031 214.493 133.031 214.493 133.031C211.845 133.031 209.197 133.031 206.549 133.031C206.218 133.031 205.887 133.031 205.225 132.674C205.225 132.317 205.225 131.961 205.556 131.604C205.887 130.534 206.218 129.464 206.549 128.038C208.535 121.262 210.521 114.13 212.507 107.354C214.162 101.292 216.148 95.2296 217.803 89.1672C218.134 87.7407 218.134 87.3841 219.789 87.3841C223.43 87.3841 227.071 87.3841 230.712 87.3841C230.712 87.3841 230.712 87.3841 231.043 87.3841C232.036 87.7407 232.036 87.7407 232.367 88.8105C233.691 93.0899 235.015 97.3693 236.34 101.649C238.657 109.494 240.974 117.696 243.291 125.542C243.953 127.325 244.284 129.464 244.946 131.247C244.946 131.604 245.277 131.961 245.277 132.674ZM223.761 102.005V102.362C223.43 103.432 223.099 104.502 222.768 105.571C222.106 107.711 221.775 110.207 221.113 112.347C221.113 112.704 220.782 113.06 221.113 113.773C221.113 113.773 221.113 113.773 221.444 113.773C223.099 113.773 224.754 113.773 226.74 113.773C226.74 113.773 226.74 113.773 227.071 113.773C227.071 113.417 227.071 113.06 227.071 112.704C226.078 110.207 224.423 102.362 223.761 102.005Z" fill="#FCFDFF"/>
<path fill-rule="evenodd" clip-rule="evenodd" d="M344.579 110.207C344.579 116.983 344.579 123.759 344.579 130.534C344.579 130.891 344.579 131.604 344.579 131.961C344.579 132.674 344.579 132.674 343.917 133.031C343.586 133.031 343.255 133.031 343.255 133.031C339.945 133.031 336.304 133.031 332.994 133.031C331.67 133.031 331.339 132.674 331.339 130.891C331.339 116.983 331.339 103.075 331.339 89.1672C331.339 87.7407 331.67 87.3841 332.994 87.3841C336.304 87.3841 339.945 87.3841 343.255 87.3841C344.579 87.3841 344.579 87.7407 344.579 89.1672C344.579 95.9428 344.579 102.362 344.579 109.137C344.579 109.494 344.579 109.851 344.579 110.207Z" fill="#FCFDFF"/>
<path fill-rule="evenodd" clip-rule="evenodd" d="M217.803 69.9101C218.134 69.1968 218.134 68.8402 218.134 68.127C219.127 64.9175 219.789 61.708 220.782 58.1418C221.113 56.3588 221.113 56.3588 222.437 56.3588C225.085 56.3588 227.402 56.3588 229.719 56.3588C231.043 56.3588 231.043 56.7154 231.043 58.1418C231.043 59.2117 231.043 60.6381 231.043 61.708C231.043 68.127 231.043 74.546 231.043 80.6085C231.043 81.3217 231.043 81.6783 231.043 82.3915C231.043 82.7481 230.712 82.7481 230.381 82.7481C230.05 83.1047 230.05 83.1047 229.719 83.1047C228.064 83.1047 226.74 83.1047 225.085 83.1047C225.085 83.1047 224.754 83.1047 224.754 82.7481C224.092 82.7481 223.761 82.7481 223.761 82.0349C223.761 81.6783 223.761 81.3217 223.761 80.9651C223.761 75.9725 223.761 71.3365 223.761 66.3439C223.761 65.9873 223.761 65.9873 223.761 65.2741C223.43 65.6307 223.43 66.3439 223.43 66.7005C222.437 71.3365 221.113 75.9725 220.12 80.6085C219.789 80.9651 219.789 81.6783 219.789 82.0349C219.458 82.7481 219.127 82.7481 218.796 82.7481C218.134 83.1047 217.803 83.1047 217.141 83.1047C216.479 83.1047 216.148 82.7481 215.486 83.1047C214.824 83.1047 214.493 82.7481 214.493 82.0349C214.493 81.6783 214.162 81.3217 214.162 80.9651C212.838 75.9725 211.514 70.6233 210.521 65.6307C210.521 65.6307 210.19 65.6307 210.19 65.2741C210.19 65.6307 210.19 65.6307 210.19 65.9873C210.19 68.127 210.19 70.2667 210.19 72.763C210.19 75.6159 210.19 78.1122 210.19 80.9651C210.19 82.7481 210.19 83.1047 208.535 83.1047C207.873 83.1047 206.88 83.1047 205.887 83.1047C205.556 83.1047 205.556 83.1047 205.225 83.1047C204.563 82.7481 204.563 82.7481 204.563 81.6783V81.3217C204.563 73.4762 204.563 65.9873 204.563 58.1418C204.563 57.7852 204.232 57.072 204.563 56.7154C204.894 56.7154 205.225 56.3588 205.556 56.3588C208.204 56.3588 210.521 56.3588 213.169 56.3588C213.5 56.3588 213.5 56.3588 213.831 56.7154C214.162 56.7154 214.162 56.7154 214.493 57.072C214.493 57.4286 214.493 57.7852 214.493 58.1418C215.486 61.708 216.479 65.2741 217.472 68.8402C217.472 69.1968 217.472 69.5534 217.803 69.9101Z" fill="#FCFDFF"/>
<path fill-rule="evenodd" clip-rule="evenodd" d="M363.778 71.3365C364.109 72.0497 364.109 72.763 364.44 73.1196C365.433 75.9725 366.426 78.4688 367.419 81.3217C367.75 81.6783 368.081 82.0349 367.75 82.7481C367.75 83.1047 367.419 83.1047 367.088 83.1047C366.095 83.1047 365.102 83.1047 364.109 83.1047C363.116 83.1047 362.122 82.7481 360.798 83.1047C360.136 83.1047 359.474 82.7481 359.143 81.6783C358.812 80.2518 358.15 78.8254 357.819 77.3989C357.488 76.3291 356.826 75.2593 356.495 73.8328C356.495 73.1196 355.833 72.763 355.171 72.763C354.178 72.763 353.847 72.763 353.847 74.1894C353.847 76.6857 353.847 78.8254 353.847 80.9651C353.847 81.3217 353.847 81.6783 353.847 82.0349C353.847 82.7481 353.847 82.7481 353.185 82.7481C353.185 83.1047 352.854 83.1047 352.523 83.1047C350.868 83.1047 349.544 83.1047 347.889 83.1047C347.227 83.1047 346.896 83.1047 346.565 82.7481C346.565 82.3915 346.565 82.3915 346.565 82.0349C346.565 81.6783 346.565 81.3217 346.565 80.9651C346.565 73.4762 346.565 65.9873 346.565 58.4984C346.565 58.1418 346.565 57.7852 346.565 57.072C346.565 56.7154 346.565 56.7154 346.896 56.7154C347.227 56.7154 347.558 56.3588 347.889 56.3588C351.861 56.3588 355.833 56.3588 359.474 56.3588C361.129 56.3588 362.453 56.7154 363.778 57.4286C365.433 58.1418 366.426 59.2117 367.419 60.6381C368.412 63.1344 368.412 65.6307 367.419 68.127C367.088 69.1968 366.426 69.9101 365.764 70.2667C365.102 70.6233 364.44 70.9799 363.778 71.3365ZM356.495 62.4212C355.833 62.4212 355.502 62.4212 354.84 62.4212C354.178 62.4212 354.178 62.4212 354.178 63.1344C354.178 64.2043 354.178 65.2741 354.178 65.9873C354.178 66.7005 354.178 67.0572 354.84 67.0572C355.833 67.0572 356.826 67.0572 357.819 67.0572C358.15 67.0572 358.481 66.7005 359.143 66.7005C359.805 66.3439 360.136 65.6307 360.136 64.5609C360.136 63.491 359.805 63.1344 359.143 62.7778C358.481 62.4212 358.15 62.4212 357.819 62.4212C357.157 62.4212 356.826 62.4212 356.495 62.4212Z" fill="#FCFDFF"/>
<path fill-rule="evenodd" clip-rule="evenodd" d="M275.398 69.1968C275.729 69.1968 276.06 69.5534 276.06 69.5534C276.722 69.9101 277.053 69.9101 277.385 70.2667C278.709 71.3365 279.371 72.4064 279.702 73.8328C280.033 76.6857 279.371 78.8254 278.047 80.6085C277.385 81.3217 276.391 82.0349 275.729 82.3915C274.405 82.7481 273.081 82.7481 271.757 82.7481C268.116 83.1047 264.144 83.1047 260.503 83.1047C259.179 83.1047 259.179 82.7481 259.179 81.3217C259.179 80.6085 259.179 79.5386 259.179 78.4688C259.179 72.0497 259.179 65.6307 259.179 58.8551C259.179 58.4984 259.179 58.1418 259.179 57.4286C259.179 56.7154 259.51 56.7154 260.172 56.3588H260.503C264.475 56.3588 268.116 56.3588 271.757 56.3588C273.081 56.3588 274.074 56.7154 275.067 57.072C276.722 57.7852 277.716 58.8551 278.378 60.6381C279.371 62.7778 279.371 65.9873 277.385 67.7704C277.053 68.127 276.722 68.4836 276.06 68.8402C276.06 68.8402 275.729 68.8402 275.398 69.1968ZM268.447 77.0423C268.778 77.0423 269.44 77.0423 269.771 77.0423C270.102 76.6857 270.764 76.6857 271.095 76.6857C271.757 76.3291 272.088 75.6159 272.088 74.546C272.088 73.4762 271.757 72.763 270.764 72.4064C269.44 72.4064 268.116 72.4064 266.792 72.4064C266.461 72.4064 266.13 72.4064 266.13 73.1196C266.13 74.1894 266.13 75.2593 266.13 76.3291C266.13 76.6857 266.461 77.0423 266.792 77.0423C267.454 77.0423 267.785 77.0423 268.447 77.0423ZM268.447 66.3439C268.778 66.3439 269.44 66.3439 269.771 66.3439C270.102 66.3439 270.433 66.3439 270.764 66.3439C271.426 65.9873 271.757 65.2741 271.757 64.2043C271.757 63.491 271.426 62.7778 270.764 62.7778C270.433 62.4212 270.433 62.4212 270.102 62.4212C269.109 62.0646 267.785 62.4212 266.792 62.4212C266.461 62.4212 266.13 62.7778 266.13 63.1344C266.13 63.8476 266.13 64.9175 266.13 65.6307C266.13 66.3439 266.461 66.3439 266.792 66.3439C267.454 66.3439 267.785 66.3439 268.447 66.3439Z" fill="#FCFDFF"/>
<path fill-rule="evenodd" clip-rule="evenodd" d="M186.026 67.4138C186.357 69.9101 186.026 72.4064 186.026 74.546C186.026 77.0423 186.026 79.182 186.026 81.6783C186.026 82.0349 186.026 82.0349 186.026 82.3915C186.026 82.7481 185.695 82.7481 185.695 82.7481C185.364 82.7481 185.364 83.1047 185.033 83.1047C183.709 83.1047 182.385 83.1047 181.061 83.1047C180.73 83.1047 180.399 83.1047 180.068 82.3915C180.068 82.0349 180.068 81.6783 180.068 81.3217C180.068 73.4762 180.068 65.9873 180.068 58.1418C180.068 56.7154 180.068 56.3588 181.392 56.3588C182.716 56.3588 184.371 56.3588 185.695 56.3588C187.35 56.3588 187.019 56.3588 188.012 57.7852C189.336 60.2815 190.66 62.7778 191.985 64.9175C192.978 66.7005 193.64 68.127 194.633 69.5534C194.633 69.5534 194.633 69.5534 194.964 69.9101C194.964 69.1968 194.964 68.8402 194.633 68.4836C194.633 67.7704 194.633 67.0572 194.633 66.7005C194.633 65.9873 194.633 65.6307 194.633 64.9175C194.633 64.5609 194.633 63.8476 194.633 63.1344C194.633 62.7778 194.633 62.0646 194.633 61.708C194.633 60.9947 194.633 60.6381 194.633 59.9249C194.633 59.5683 194.633 58.8551 194.633 58.1418C194.633 57.7852 194.633 57.072 194.964 56.7154C194.964 56.7154 194.964 56.7154 195.295 56.7154C196.619 56.7154 198.274 56.3588 199.929 56.3588C200.26 56.3588 200.26 56.7154 200.591 56.7154C200.591 57.072 200.922 57.072 200.922 57.4286C200.922 57.7852 200.922 58.1418 200.922 58.8551C200.922 65.9873 200.922 73.4762 200.922 80.6085C200.922 81.3217 200.922 81.6783 200.922 82.0349C200.922 82.7481 200.591 82.7481 200.26 82.7481C199.929 83.1047 199.598 83.1047 199.598 83.1047C198.274 83.1047 196.95 82.7481 195.626 83.1047C194.964 83.1047 194.302 82.7481 193.971 82.0349C193.309 80.6085 192.647 79.5386 191.985 78.4688C190.329 75.2593 188.674 72.0497 186.688 68.8402C186.357 68.4836 186.357 68.127 186.026 67.4138Z" fill="#FCFDFF"/>
<path fill-rule="evenodd" clip-rule="evenodd" d="M392.575 83.1048C391.251 83.4614 389.596 83.1048 388.272 82.3915C384.631 80.9651 382.314 77.7556 381.321 73.4762C380.99 70.9799 380.99 68.4836 381.652 65.9873C382.645 60.9948 385.293 57.7852 389.265 56.7154C391.582 56.0022 394.23 56.0022 396.547 56.7154C400.85 58.1419 403.498 61.708 404.16 67.0572C404.491 69.5535 404.491 72.0498 403.829 74.1894C402.505 78.8254 400.188 81.6783 396.216 82.7482C395.223 83.1048 393.899 83.4614 392.575 83.1048ZM396.216 69.5535C396.216 68.8402 396.216 68.127 396.216 67.4138C395.885 66.344 395.885 65.2741 395.223 64.2043C394.23 61.708 391.913 61.708 390.589 63.491C390.258 64.2043 389.927 64.9175 389.927 65.6307C389.596 66.7006 389.596 67.7704 389.265 68.8402C389.265 70.2667 389.265 71.6931 389.596 73.4762C389.596 73.8328 389.927 74.1894 389.927 74.5461C390.589 76.3291 391.582 77.0423 393.237 77.0423C394.23 77.0423 394.892 76.3291 395.223 75.2593C395.554 74.9027 395.885 74.1894 395.885 73.4762C395.885 72.0498 396.216 70.9799 396.216 69.5535Z" fill="#FCFDFF"/>
<path fill-rule="evenodd" clip-rule="evenodd" d="M256.531 69.5534C256.531 70.6233 256.531 71.6931 256.531 72.763C255.538 78.1121 252.89 81.6783 248.256 82.7481C245.608 83.818 242.629 83.4613 239.981 82.3915C237.002 80.6084 235.016 78.1121 234.022 74.1894C233.029 70.6233 233.029 67.0571 234.685 63.491C236.009 59.2117 238.988 57.072 242.629 56.3588C244.615 56.0021 246.601 56.0021 248.587 56.7154C249.58 57.072 250.904 57.4286 252.228 58.4984C254.876 60.6381 256.2 63.8476 256.531 67.7704C256.531 68.127 256.531 68.4836 256.531 68.4836C256.531 68.8402 256.531 69.1968 256.531 69.5534ZM248.587 69.5534C248.587 68.8402 248.587 68.4836 248.587 68.127C248.256 66.7005 248.256 65.6307 247.925 64.2042C247.263 63.1344 246.601 62.4212 245.277 62.4212C244.284 62.4212 243.291 62.7778 242.629 64.2042C242.298 64.5609 241.967 65.2741 241.967 65.9873C241.636 68.4836 241.636 70.9799 241.967 73.4762C241.967 74.1894 242.298 74.9026 242.629 75.6159C243.622 77.3989 246.601 77.7555 247.594 75.6159C247.594 75.2592 247.925 74.546 247.925 74.1894C248.256 72.4063 248.587 70.9799 248.587 69.5534Z" fill="#FCFDFF"/>
<path fill-rule="evenodd" clip-rule="evenodd" d="M404.491 75.2593C404.822 74.9026 405.153 74.9026 405.484 74.9026C407.14 74.546 408.795 74.1894 410.45 73.8328C411.112 73.8328 411.443 73.8328 411.774 74.546C412.105 75.9725 413.429 76.6857 414.753 76.6857C415.415 77.0423 416.077 77.0423 416.739 77.0423C417.07 76.6857 417.732 76.6857 418.063 76.3291C418.725 75.9725 418.725 74.9026 418.063 74.1894C417.732 74.1894 417.401 73.8328 417.07 73.8328C416.408 73.4762 416.077 73.4762 415.415 73.4762C414.091 73.1196 412.767 72.763 411.443 72.4064C410.781 72.0497 409.788 71.6931 409.126 71.3365C405.815 69.5534 404.491 64.5609 406.809 60.2815C407.471 58.8551 408.795 58.1418 410.119 57.4286C411.112 56.7154 412.436 56.3588 413.429 56.3588C415.084 56.0022 416.408 56.0022 418.063 56.3588C420.049 56.7154 421.704 57.4286 423.359 58.8551C424.021 59.5683 424.683 60.6381 425.345 61.708C425.345 62.0646 425.345 62.0646 425.345 62.4212C425.345 62.7778 425.014 62.7778 425.014 62.7778C423.359 63.491 421.373 63.8476 419.718 64.5609C419.718 64.5609 419.718 64.5609 419.387 64.5609C419.387 64.2043 419.056 63.8476 418.725 63.8476C418.725 63.491 418.394 63.1344 418.063 62.7778C416.739 62.0646 415.415 61.708 414.091 62.4212C413.76 62.4212 413.429 62.7778 413.429 63.1344C413.098 63.491 413.098 64.2043 413.76 64.5609C414.091 64.9175 414.422 64.9175 414.753 65.2741C415.746 65.6307 416.739 65.6307 417.732 65.9873C419.056 66.3439 420.38 66.7005 421.704 67.0572C423.028 67.4138 423.69 68.4836 424.683 69.1968C427 72.0497 426.669 76.6857 424.683 79.182C423.69 80.6085 422.366 81.6783 421.042 82.0349C420.049 82.7481 418.725 83.1047 417.732 83.1047C415.415 83.4614 413.429 83.4614 411.112 82.7481C410.119 82.3915 409.126 82.0349 408.133 81.3217C406.478 80.2518 405.484 78.4688 404.822 76.3291C404.491 75.9725 404.491 75.6159 404.491 75.2593Z" fill="#FCFDFF"/>
<path fill-rule="evenodd" clip-rule="evenodd" d="M344.579 82.7481C344.248 82.7481 343.917 83.1047 343.586 83.1047C341.931 83.1047 339.945 83.1047 338.29 83.1047C337.959 83.1047 337.959 83.1047 337.959 83.1047C337.297 83.1047 336.966 82.7481 336.966 82.0349C336.635 80.9651 336.304 80.2518 335.973 79.182C335.642 77.7555 335.642 77.7555 334.318 77.7555C332.994 77.7555 331.67 77.7555 330.346 77.7555C329.353 77.7555 329.353 77.7555 329.022 78.8254C328.691 79.8952 328.36 80.9651 328.029 82.0349C328.029 82.7481 327.698 83.1047 327.036 83.1047C325.381 82.7481 324.057 83.1047 322.733 83.1047C322.402 83.1047 322.402 82.7481 322.071 82.7481C321.74 82.3915 322.071 82.0349 322.071 81.6783C322.402 80.2518 322.733 78.8254 323.064 77.3989C325.05 71.6931 326.705 65.6307 328.36 59.5683C328.691 58.8551 328.691 58.1418 329.022 57.072C329.022 56.7154 329.353 56.7154 329.684 56.7154C330.015 56.3588 330.015 56.3588 330.346 56.3588C332.332 56.3588 334.318 56.3588 335.973 56.3588C336.304 56.3588 336.304 56.3588 336.635 56.3588C336.966 56.3588 337.297 56.7154 337.297 57.072C337.297 57.4286 337.628 57.7852 337.628 58.1418C339.283 63.8476 340.938 69.5534 342.593 75.2593C343.255 77.3989 343.586 79.182 344.248 81.3217C344.579 81.6783 344.579 82.0349 344.579 82.7481ZM332.332 65.2741C332.001 67.0572 331.339 69.1968 331.008 70.9799C331.008 70.9799 331.008 71.3365 331.008 71.6931C332.001 71.6931 332.663 71.6931 333.656 71.6931L333.987 71.3365C333.987 70.2667 332.994 66.7005 332.332 65.2741Z" fill="#FCFDFF"/>
<path fill-rule="evenodd" clip-rule="evenodd" d="M184.702 30.6826C185.033 30.6826 185.364 30.326 185.695 30.326C187.35 30.326 189.336 30.326 190.991 30.326C191.323 30.326 191.654 30.6826 191.654 30.6826C191.985 30.6826 192.316 30.6826 192.316 31.0392C192.316 31.3958 192.316 31.7524 192.647 32.1091C193.309 34.2487 193.64 36.745 194.302 38.8847C194.633 39.5979 194.633 39.9545 194.964 40.6678C194.964 40.3112 195.295 40.3112 195.295 39.9545C195.957 37.4582 196.619 34.6053 197.281 32.1091C197.612 30.326 197.612 30.326 198.936 30.326C200.591 30.326 202.246 30.326 203.901 30.326C204.232 30.326 204.232 30.326 204.232 30.326C205.225 30.6826 205.225 30.6826 205.556 31.7524C205.556 32.4657 205.556 33.1789 205.556 33.8921C205.556 38.8847 205.556 43.8773 205.556 48.8699C205.556 49.2265 205.556 49.5831 205.556 49.9397C205.225 51.0095 205.225 51.0095 204.563 51.0095H204.232C203.239 51.0095 201.915 51.0095 200.922 51.0095C200.591 51.0095 200.26 51.0095 199.929 51.0095C199.598 50.6529 199.929 49.9397 199.929 49.5831C199.929 48.5133 199.929 47.0868 199.929 46.017C199.929 43.5207 199.929 41.381 199.929 38.8847C199.929 38.5281 199.598 38.1715 199.598 37.8149C199.598 38.1715 199.598 38.5281 199.267 38.5281C198.605 42.0942 197.612 45.3037 196.95 48.8699C196.619 49.2265 196.619 49.9397 196.619 50.2963C196.288 50.6529 196.288 51.0095 195.957 51.0095C194.964 51.0095 193.971 51.0095 192.978 51.0095C192.647 51.0095 192.647 50.6529 192.316 50.6529C192.316 50.2963 191.985 49.5831 191.985 49.2265C190.991 45.6603 190.329 42.4508 189.336 38.8847C189.336 38.5281 189.336 37.8149 189.005 37.4582C189.005 37.8149 189.005 38.5281 189.005 38.8847C189.005 42.0942 189.005 45.6603 189.005 49.2265C189.005 51.0095 189.005 51.0095 187.35 51.0095C186.688 51.0095 185.695 51.0095 185.033 51.0095C184.702 51.0095 184.371 50.6529 184.371 50.2963C184.371 49.9397 184.371 49.5831 184.371 49.2265C184.371 43.5207 184.371 37.8149 184.371 32.1091C184.371 31.7524 184.371 31.0392 184.702 30.6826Z" fill="#FCFDFF"/>
<path fill-rule="evenodd" clip-rule="evenodd" d="M320.416 41.0244C320.747 40.3112 320.747 40.3112 320.747 39.9545C321.409 37.4582 322.071 34.962 322.733 32.1091V31.7524C323.064 30.6826 323.395 30.6826 324.057 30.326C326.043 30.326 328.029 30.326 330.015 30.326C330.346 30.326 330.677 30.6826 330.677 30.6826C331.339 31.3958 331.008 31.7524 331.008 32.4657C331.008 37.4582 331.008 42.4508 331.008 47.8C331.008 48.5133 331.008 49.2265 331.008 49.5831C331.008 50.2963 331.008 50.6529 330.677 51.0095C330.677 51.0095 330.346 51.0095 330.015 51.0095C329.022 51.0095 327.698 51.0095 326.705 51.0095C326.374 51.0095 326.043 51.0095 326.043 51.0095C325.712 51.0095 325.712 50.6529 325.381 50.2963C325.381 49.9397 325.381 49.5831 325.381 49.2265C325.381 45.6603 325.381 42.0942 325.381 38.5281C325.381 38.1715 325.381 37.8149 325.381 37.4582C325.05 37.8149 325.05 38.1715 325.05 38.5281C324.388 41.381 323.726 44.5905 322.733 47.4434C322.733 48.5133 322.402 49.2265 322.071 50.2963C322.071 50.6529 321.74 51.0095 321.409 51.0095C320.416 51.0095 319.754 51.0095 318.76 51.0095C318.429 51.0095 318.098 50.6529 318.098 50.2963C317.767 49.9397 317.767 49.5831 317.767 49.2265C316.774 45.6603 315.781 42.0942 315.119 38.5281C314.788 38.1715 314.788 38.1715 314.457 37.8149C314.457 38.1715 314.457 38.8847 314.457 39.2413C314.457 42.4508 314.457 46.017 314.457 49.2265C314.457 49.9397 314.788 50.2963 314.457 51.0095C314.126 51.0095 314.126 51.0095 314.126 51.0095C312.802 51.0095 311.809 51.0095 310.816 51.0095C310.154 51.0095 310.154 50.6529 310.154 50.2963C310.154 49.9397 310.154 49.5831 310.154 49.2265C310.154 43.5207 310.154 37.8149 310.154 32.4657C310.154 30.326 310.154 30.326 311.478 30.326C313.133 30.326 314.788 30.326 316.443 30.326C316.774 30.326 317.105 30.326 317.105 30.326C317.767 30.326 317.767 30.6826 318.098 31.3958C318.098 31.3958 318.098 31.7524 318.098 32.1091C318.76 34.6053 319.423 37.4582 320.085 39.9545C320.416 39.9545 320.416 40.3112 320.416 41.0244Z" fill="#FCFDFF"/>
<path fill-rule="evenodd" clip-rule="evenodd" d="M240.643 42.0942C240.312 42.8074 240.643 42.8074 240.643 43.1641C241.636 45.3037 242.298 47.4434 243.291 49.5831C243.291 49.9397 243.622 50.2963 243.622 51.0095C243.291 51.0095 242.96 51.0095 242.96 51.0095C241.305 51.0095 239.65 51.0095 237.995 51.0095C237.333 51.0095 237.002 50.6529 236.671 49.9397C236.009 48.5133 235.678 46.7302 235.016 44.9471C234.684 44.5905 234.684 44.2339 234.684 44.2339C234.353 43.5207 234.022 43.1641 233.691 43.1641C232.698 43.1641 232.367 43.5207 232.367 44.5905C232.367 46.017 232.367 47.8 232.367 49.5831C232.367 51.0095 232.367 51.0095 231.043 51.0095C230.05 51.0095 229.057 51.0095 227.733 51.0095H227.402C226.74 51.0095 226.74 51.0095 226.409 49.9397C226.409 49.9397 226.409 49.5831 226.409 49.2265C226.409 43.5207 226.409 37.8149 226.409 32.1091C226.409 30.6826 226.74 30.326 228.064 30.326C231.043 30.326 234.022 30.326 237.002 30.326C237.995 30.326 238.988 30.6826 239.981 31.0392C240.643 31.3958 241.305 31.7524 241.636 32.1091C244.615 34.2487 244.284 39.5979 241.305 41.381C240.974 41.7376 240.643 41.7376 240.643 42.0942ZM234.684 34.962C234.684 34.962 234.684 34.962 234.684 35.3186C234.353 35.3186 233.691 34.962 233.36 35.3186C233.029 35.3186 232.698 35.3186 232.698 36.0318C232.698 36.3884 232.698 37.1016 232.698 37.8149C232.698 38.5281 232.698 38.5281 233.36 38.5281C234.022 38.5281 235.016 38.5281 235.678 38.5281C236.009 38.5281 236.34 38.5281 236.671 38.1715C237.664 37.4582 237.333 36.0318 236.671 35.3186C236.34 35.3186 236.009 35.3186 236.009 35.3186C235.347 34.962 235.016 34.962 234.684 34.962Z" fill="#FCFDFF"/>
<path fill-rule="evenodd" clip-rule="evenodd" d="M282.019 40.6678C282.019 38.1715 282.019 35.3186 282.019 32.8223C282.019 32.4657 282.019 32.1091 282.019 31.7524C282.019 30.6826 282.019 30.326 283.012 30.326C285.66 30.326 287.977 30.326 290.625 30.6826C292.28 30.6826 293.935 31.0392 295.59 32.4657C298.238 34.6053 299.562 38.1715 299.231 42.0942C298.569 46.7302 295.59 49.9397 292.28 50.6529C291.287 51.0095 290.625 51.0095 289.963 51.0095C287.646 51.0095 285.329 51.0095 283.343 51.0095C282.019 51.0095 282.019 51.0095 282.019 49.5831C282.019 46.3736 282.019 43.5207 282.019 40.6678ZM287.977 40.6678C287.977 42.0942 287.977 43.1641 287.977 44.5905C287.977 44.9471 287.977 45.3037 287.977 45.3037C287.977 45.6603 288.308 46.017 288.639 46.017C289.963 46.3736 290.956 46.017 291.949 44.2339C292.28 44.2339 292.28 43.8773 292.28 43.5207C292.942 41.381 292.942 39.5979 292.28 37.8149C291.287 35.6752 289.963 35.3186 288.639 35.3186C288.308 35.3186 287.977 35.6752 287.977 36.0318C287.977 36.3884 287.977 36.745 287.977 36.745C287.977 38.1715 287.977 39.2413 287.977 40.6678Z" fill="#FCFDFF"/>
<path fill-rule="evenodd" clip-rule="evenodd" d="M364.109 39.2413C364.109 40.6678 364.109 42.0942 364.109 43.1641C364.109 44.5905 364.109 45.6603 364.109 47.0868C364.109 48.1566 364.44 49.5831 364.109 50.6529C363.778 51.0095 363.778 51.0095 363.447 51.0095C362.454 51.0095 361.129 51.0095 360.136 51.0095C359.474 51.0095 359.474 50.6529 359.474 50.2963C359.143 49.9397 359.143 49.5831 359.143 49.2265C359.143 43.5207 359.143 37.8149 359.143 32.4657C359.143 32.1091 359.143 31.7524 359.474 31.3958C359.474 30.6826 359.474 30.6826 359.805 30.6826C360.136 30.6826 360.136 30.326 360.467 30.326C361.46 30.326 362.785 30.6826 364.109 30.326C364.771 30.326 365.102 30.6826 365.433 31.3958C366.095 32.4657 366.757 33.5355 367.419 34.6053C368.743 36.745 369.736 38.5281 370.729 40.3112L371.06 40.6678C371.06 40.3112 371.06 39.9545 371.06 39.9545C371.06 38.1715 371.06 36.745 371.06 34.962C371.06 33.8921 371.06 32.8223 371.06 31.3958C371.06 30.6826 371.06 30.6826 371.722 30.6826C373.046 30.326 374.039 30.6826 375.363 30.6826C375.363 30.6826 375.363 30.6826 375.694 30.6826C376.025 31.0392 376.025 31.3958 376.025 32.1091C376.025 33.1789 376.025 34.2487 376.025 35.3186C376.025 39.9545 376.025 44.5905 376.025 49.2265C376.025 49.5831 376.025 49.9397 375.694 50.6529C375.694 50.6529 375.694 51.0095 375.363 51.0095C375.032 51.0095 375.032 51.0095 374.701 51.0095C373.708 51.0095 372.715 51.0095 371.722 51.0095C371.06 51.0095 370.729 51.0095 370.398 50.2963C370.067 49.5831 369.736 48.8699 369.074 48.1566C368.081 46.3736 367.088 44.5905 366.095 42.4508C365.433 41.7376 365.102 41.0244 364.44 39.9545C364.44 39.5979 364.44 39.5979 364.109 39.2413Z" fill="#FCFDFF"/>
<path fill-rule="evenodd" clip-rule="evenodd" d="M274.074 40.6678C274.074 37.8149 274.074 34.962 274.074 32.1091C274.074 30.6826 274.074 30.326 275.398 30.326C276.391 30.326 277.384 30.326 278.378 30.6826C278.709 30.6826 279.04 30.6826 279.04 31.3958C279.04 31.7524 279.04 32.1091 279.04 32.4657C279.04 37.8149 279.04 43.5207 279.04 49.2265C279.04 49.5831 279.04 49.9397 279.04 50.2963C279.04 50.6529 278.709 51.0095 278.378 51.0095C277.715 51.0095 277.053 51.0095 276.391 51.0095C276.06 51.0095 275.398 51.0095 275.067 51.0095C274.405 51.0095 274.074 50.6529 273.743 50.2963C273.081 49.2265 272.419 48.1566 271.757 47.0868C270.764 45.3037 269.771 43.8773 268.778 42.0942C268.447 41.381 268.116 40.3112 267.785 39.5979C267.454 39.5979 267.454 39.2413 267.123 38.8847C267.454 41.0244 267.454 42.8074 267.454 44.9471C267.454 46.3736 267.454 47.8 267.454 49.2265C267.454 49.5831 267.454 49.9397 267.454 49.9397C267.454 50.6529 267.123 51.0095 266.792 51.0095C266.461 51.0095 266.461 51.0095 266.461 51.0095C265.468 51.0095 264.475 51.0095 263.151 51.0095C262.82 51.0095 262.489 50.6529 262.489 49.9397C262.489 49.9397 262.489 49.5831 262.489 49.2265C262.489 43.5207 262.489 37.8149 262.489 32.1091C262.489 31.7524 262.489 31.0392 262.82 30.6826C262.82 30.6826 263.151 30.326 263.482 30.326C264.806 30.326 266.13 30.6826 267.123 30.326C267.785 30.326 268.447 30.6826 268.778 31.3958C270.433 34.2487 272.088 37.1016 273.743 40.3112C274.074 40.3112 274.074 40.6678 274.074 40.6678Z" fill="#FCFDFF"/>
<path fill-rule="evenodd" clip-rule="evenodd" d="M400.188 51.3662C399.195 51.3662 397.871 51.3662 396.547 50.653C393.568 49.2265 391.582 46.7302 391.251 42.4509C390.92 41.0244 390.92 39.2413 391.251 37.8149C392.244 33.8921 394.23 31.3959 397.871 30.326C399.857 29.9694 402.174 29.9694 404.491 31.0392C407.14 32.4657 408.795 34.962 409.457 38.5281C409.457 39.9546 409.457 41.381 409.126 43.1641C408.464 47.0868 406.809 49.5831 403.498 50.653C403.167 51.0096 402.505 51.0096 402.174 51.3662C401.512 51.3662 400.85 51.3662 400.188 51.3662ZM397.54 41.0244C397.54 42.0942 397.54 43.5207 398.202 44.5905C398.533 46.017 399.195 46.3736 400.519 46.3736C401.512 46.3736 402.174 45.6604 402.505 44.5905C402.505 44.2339 402.505 43.8773 402.836 43.5207C402.836 42.0942 402.836 40.6678 402.836 39.2413C402.836 38.5281 402.836 37.8149 402.505 37.1017C402.174 35.6752 401.181 34.962 399.857 35.3186C399.195 35.3186 398.864 35.6752 398.533 36.3884C398.202 36.745 397.871 37.4583 397.871 37.8149C397.54 38.8847 397.54 39.9546 397.54 41.0244Z" fill="#FCFDFF"/>
<path fill-rule="evenodd" clip-rule="evenodd" d="M310.485 76.6857V77.0423C310.485 78.8254 310.485 80.2518 310.485 82.0349C310.485 82.7481 310.154 82.7481 309.492 83.1047C309.492 83.1047 309.161 83.1047 308.83 83.1047C304.196 83.1047 299.562 83.1047 294.928 83.1047C293.273 83.1047 293.273 83.1047 293.273 80.9651C293.273 73.4762 293.273 65.9873 293.273 58.4984C293.273 56.3588 293.273 56.3588 294.928 56.3588C296.583 56.3588 297.907 56.3588 299.231 56.3588C299.562 56.3588 299.562 56.3588 299.893 56.3588C300.886 56.7154 300.886 56.7154 300.886 57.7852C300.886 58.1418 300.886 58.4984 300.886 58.8551C300.886 64.2043 300.886 69.1968 300.886 74.546C300.886 74.9026 300.886 75.2593 300.886 75.9725C300.886 75.9725 301.217 76.3291 301.548 76.3291C301.879 76.3291 302.21 76.3291 302.541 76.3291C304.527 76.3291 306.844 76.3291 309.161 76.3291C309.492 76.3291 309.823 76.3291 310.485 76.6857Z" fill="#FCFDFF"/>
<path fill-rule="evenodd" clip-rule="evenodd" d="M426.338 35.3186C426.007 35.3186 426.007 35.3186 425.676 35.6752C424.352 36.0318 423.359 36.3885 422.035 36.7451C421.704 36.7451 421.373 36.7451 421.042 36.3885C420.38 34.962 419.056 34.6054 417.732 34.962H417.401C417.07 34.962 416.739 35.3186 416.408 36.0318C416.408 36.3885 416.739 36.7451 417.401 37.1017C417.732 37.1017 418.394 37.4583 418.725 37.4583C420.049 37.8149 421.042 38.1715 422.035 38.5281C422.697 38.5281 423.028 38.5281 423.69 38.8847C425.345 39.598 426.669 41.381 427 43.5207C427 46.017 426.338 47.8001 424.683 49.2265C423.359 50.2964 422.035 51.0096 420.38 51.3662C418.725 51.3662 416.739 51.3662 415.084 51.0096C413.429 50.653 412.105 49.5831 410.781 48.1567C410.45 47.4435 410.119 46.7302 409.788 46.017C409.788 45.6604 409.788 45.3038 409.788 45.3038C410.119 44.9472 410.119 44.9472 410.45 44.9472C411.774 44.5906 413.098 44.2339 414.422 44.2339C414.753 43.8773 415.084 44.2339 415.415 44.5906C416.077 46.017 417.07 46.3736 418.063 46.3736C418.725 46.3736 419.056 46.3736 419.718 46.3736C420.049 46.3736 420.38 46.017 420.38 46.017C420.711 45.6604 421.042 44.9472 420.711 44.5906C420.38 44.2339 420.049 44.2339 419.718 43.8773C419.056 43.8773 418.725 43.5207 418.063 43.5207C416.739 43.1641 415.746 42.8075 414.422 42.4509C414.091 42.4509 413.429 42.0943 413.098 41.7376C410.45 40.3112 409.788 36.0318 411.774 33.1789C412.436 32.1091 413.098 31.3959 414.091 31.0393C415.084 30.6826 416.077 30.326 417.401 30.326C418.725 30.326 420.049 29.9694 421.373 30.6826C422.697 31.0393 423.69 31.3959 424.683 32.4657C425.345 33.1789 426.007 33.8922 426.338 35.3186Z" fill="#FCFDFF"/>
<path fill-rule="evenodd" clip-rule="evenodd" d="M348.882 35.3186C348.882 35.6752 348.882 35.6752 348.882 35.6752C348.551 38.5281 348.882 38.1715 350.537 38.1715C351.861 38.1715 353.185 38.1715 354.509 38.1715C355.502 38.1715 355.833 38.1715 355.833 39.5979C355.833 40.6678 355.833 41.7376 355.502 42.4508C355.171 43.1641 354.84 42.8074 354.509 42.8074C353.185 42.8074 351.861 42.8074 350.206 42.8074C349.875 42.8074 349.875 42.8074 349.544 42.8074C349.213 43.1641 348.882 43.1641 348.882 43.5207C348.882 44.2339 348.882 44.9471 348.882 45.6603L349.213 46.017C349.544 46.017 349.875 46.017 350.206 46.017C352.192 46.017 354.178 46.017 355.833 46.017C357.488 46.017 357.488 46.017 357.488 47.8C357.488 48.5133 357.488 49.5831 357.488 50.2963C357.488 50.6529 357.157 51.0095 356.826 51.0095C356.495 51.0095 356.164 51.0095 355.833 51.0095C352.192 51.0095 348.22 51.0095 344.248 51.0095C342.924 51.0095 342.924 51.0095 342.924 49.2265C342.924 43.5207 342.924 37.8149 342.924 32.1091C342.924 31.7524 342.593 31.0392 342.924 30.6826C343.255 30.6826 343.586 30.326 343.917 30.326C347.889 30.326 352.192 30.326 356.164 30.326C357.488 30.326 357.488 30.6826 357.488 32.1091C357.488 32.8223 357.488 33.5355 357.488 34.2487C357.488 34.962 357.157 35.3186 356.495 35.3186C356.164 35.3186 355.833 35.3186 355.502 35.3186C353.847 35.3186 351.861 35.3186 349.875 35.3186C349.544 35.3186 349.213 34.962 348.882 35.3186Z" fill="#FCFDFF"/>
<path fill-rule="evenodd" clip-rule="evenodd" d="M182.385 34.962C182.054 35.3186 181.392 35.3186 181.061 35.3186C179.406 35.3186 177.42 35.3186 175.765 35.3186C175.434 35.3186 175.103 35.3186 175.103 35.3186C174.11 35.3186 173.779 35.3186 173.779 36.745C173.779 36.745 173.779 37.1016 173.779 37.4582C173.779 37.8149 174.11 38.1715 174.441 38.1715C174.772 38.1715 175.103 38.1715 175.434 38.1715C176.758 38.1715 178.082 38.1715 179.737 38.1715C180.73 38.1715 181.061 38.1715 181.061 39.5979C181.061 40.3112 181.061 41.381 181.061 42.0942C180.73 42.4508 180.73 42.8074 180.399 42.8074C180.068 42.8074 179.737 42.8074 179.406 42.8074C177.751 42.8074 176.427 42.8074 175.103 42.8074C174.11 42.8074 173.779 43.1641 173.779 44.2339C173.779 44.5905 173.779 44.9471 173.779 45.6603C173.779 45.6603 174.11 46.017 174.441 46.017C174.772 46.017 175.103 46.017 175.103 46.017C177.089 46.017 179.075 46.017 181.061 46.017C182.385 46.017 182.716 46.017 182.716 47.8C182.716 48.5133 182.716 49.2265 182.716 49.9397C182.385 50.6529 182.385 51.0095 181.723 51.0095C181.723 51.0095 181.392 51.0095 181.061 51.0095C177.089 51.0095 173.448 51.0095 169.476 51.0095C168.152 51.0095 167.821 51.0095 167.821 49.2265C167.821 43.5207 167.821 37.8149 167.821 32.1091C167.821 30.6826 168.152 30.326 169.476 30.326C173.448 30.326 177.089 30.326 181.061 30.326C182.385 30.326 182.716 30.6826 182.716 32.1091C182.716 32.8223 182.716 33.5355 182.716 33.8921C182.716 34.2487 182.385 34.6053 182.385 34.962Z" fill="#FCFDFF"/>
<path fill-rule="evenodd" clip-rule="evenodd" d="M260.503 30.6826V31.0392C260.503 32.1091 260.503 33.1789 260.503 34.2487C260.503 34.962 260.503 35.3186 259.841 35.3186C259.51 35.3186 259.179 35.3186 259.179 35.3186C257.193 35.3186 255.207 35.3186 253.221 35.3186C251.897 35.3186 251.897 35.3186 251.897 36.745C251.897 37.8149 251.897 38.1715 253.221 38.1715C254.545 38.1715 255.869 38.1715 257.524 38.1715C257.855 38.1715 258.517 38.1715 258.848 38.5281C258.848 39.5979 258.848 41.7376 258.848 42.8074C258.517 42.8074 257.855 42.8074 257.524 42.8074C256.2 42.8074 254.876 42.8074 253.221 42.8074C251.897 42.8074 251.897 43.1641 251.897 44.5905V44.9471C251.897 46.017 252.228 46.017 252.89 46.017C254.876 46.017 256.862 46.017 259.179 46.017C259.51 46.017 259.841 46.017 260.172 46.017C260.172 46.017 260.503 46.3736 260.503 46.7302C260.503 48.1566 260.834 49.2265 260.503 50.6529C260.503 50.6529 260.503 50.6529 260.172 51.0095C260.172 51.0095 259.51 51.0095 259.179 51.0095C255.207 51.0095 251.235 51.0095 247.594 51.0095C245.939 51.0095 245.939 51.0095 245.939 49.5831C245.939 43.5207 245.939 37.8149 245.939 32.1091C245.939 30.6826 245.939 30.326 247.263 30.326C251.235 30.326 255.207 30.326 259.179 30.326C259.841 30.326 260.172 30.326 260.503 30.6826Z" fill="#FCFDFF"/>
<path fill-rule="evenodd" clip-rule="evenodd" d="M208.204 40.6678C208.204 37.8149 208.204 34.962 208.204 32.1091C208.204 30.6826 208.204 30.326 209.528 30.326C212.176 30.326 214.824 30.6826 217.472 30.6826C218.465 30.6826 219.458 30.6826 220.12 31.0392C221.444 31.0392 222.437 31.7524 223.43 32.8223C225.747 35.6752 225.085 39.9545 222.768 41.7376C221.775 42.8074 220.451 43.5207 219.127 43.5207C218.134 43.5207 217.141 43.5207 215.817 43.5207C215.486 43.8773 215.155 43.5207 215.155 43.8773C214.493 43.8773 214.493 43.8773 214.493 44.5905C214.493 44.9471 214.493 45.3037 214.493 45.3037C214.493 46.7302 214.493 48.1566 214.493 49.5831C214.493 49.9397 214.493 50.2963 214.162 50.6529C214.162 50.6529 214.162 51.0095 213.831 51.0095H213.5C211.845 51.0095 210.521 51.0095 209.197 51.0095H208.866C208.535 51.0095 208.204 50.6529 208.204 50.6529C208.204 49.9397 208.204 49.5831 208.204 49.2265C208.204 46.3736 208.204 43.5207 208.204 40.6678ZM216.148 35.3186C215.817 35.3186 215.155 35.3186 214.824 35.3186C214.493 35.3186 214.493 35.6752 214.493 36.0318C214.493 36.745 214.493 37.8149 214.493 38.5281C214.493 38.8847 214.493 38.8847 214.824 38.8847C215.817 39.2413 216.479 39.2413 217.472 38.8847C218.134 38.5281 218.796 37.8149 218.796 37.1016C218.796 36.3884 218.134 35.6752 217.472 35.6752C217.141 35.3186 217.141 35.3186 216.81 35.3186C216.479 35.3186 216.479 35.3186 216.148 35.3186Z" fill="#FCFDFF"/>
<path fill-rule="evenodd" clip-rule="evenodd" d="M312.802 56.7154H313.133C315.45 56.3588 317.436 56.7154 319.422 56.7154H319.753C320.084 57.072 320.084 57.4286 320.084 57.4286C320.084 58.1418 320.084 58.4984 320.084 58.8551C320.084 65.9873 320.084 73.4762 320.084 80.6085C320.084 81.3217 320.084 81.6783 320.084 82.0349C320.084 82.7481 319.753 82.7481 319.091 83.1047C319.091 83.1047 319.091 83.1047 318.76 83.1047C317.105 83.1047 315.45 83.1047 313.795 83.1047C312.471 83.1047 312.471 82.7481 312.471 81.6783C312.471 79.8952 312.471 78.1122 312.471 76.3291C312.471 70.6233 312.471 64.5609 312.471 58.4984C312.471 57.7852 312.471 57.072 312.802 56.7154Z" fill="#FCFDFF"/>
<path fill-rule="evenodd" clip-rule="evenodd" d="M282.35 56.7154C282.681 56.7154 283.012 56.3588 283.343 56.3588C284.998 56.3588 286.653 56.3588 288.308 56.3588C288.639 56.3588 288.639 56.3588 288.639 56.3588C289.632 56.7154 289.632 56.7154 289.632 57.4286C289.632 57.7852 289.632 58.1418 289.632 58.4984C289.632 65.9873 289.632 73.4762 289.632 80.9651C289.632 83.1047 289.632 83.1047 287.977 83.1047C286.653 83.1047 285.329 83.1047 283.674 83.1047H283.343C282.35 82.7481 282.019 82.7481 282.019 81.6783C282.019 81.3217 282.019 80.9651 282.019 80.9651C282.019 73.4762 282.019 65.9873 282.019 58.4984C282.019 57.7852 282.019 57.4286 282.35 56.7154Z" fill="#FCFDFF"/>
<path fill-rule="evenodd" clip-rule="evenodd" d="M176.096 56.7154C176.427 57.072 176.427 57.7852 176.427 58.4984C176.427 60.9947 176.427 63.1344 176.427 65.6307C176.427 70.6233 176.427 75.6159 176.427 80.6085C176.427 80.9651 176.427 81.3217 176.427 81.6783C176.427 82.7481 176.096 82.7481 175.434 83.1047C175.103 83.1047 175.103 83.1047 175.103 83.1047C173.448 83.1047 171.793 83.1047 170.138 83.1047C169.807 83.1047 169.145 83.1047 168.814 82.3915C168.814 82.0349 168.814 81.6783 168.814 81.3217C168.814 73.4762 168.814 65.9873 168.814 58.1418C168.814 56.7154 168.814 56.3588 170.138 56.3588C171.793 56.3588 173.448 56.3588 175.103 56.3588C175.434 56.3588 175.765 56.3588 176.096 56.7154Z" fill="#FCFDFF"/>
<path fill-rule="evenodd" clip-rule="evenodd" d="M378.673 69.9101C378.673 73.8328 378.673 77.7555 378.673 81.6783C378.673 82.7481 378.673 83.1047 377.349 83.1047C375.694 83.1047 374.039 83.1047 372.384 83.1047C372.053 83.1047 372.053 83.1047 372.053 83.1047C371.391 82.7481 371.06 82.7481 371.06 81.6783C371.06 81.3217 371.06 81.3217 371.06 80.9651C371.06 73.4762 371.06 65.9873 371.06 58.8551C371.06 58.1418 371.06 57.7852 371.06 57.4286C371.06 56.7154 371.391 56.7154 371.722 56.7154C371.722 56.3588 372.053 56.3588 372.053 56.3588C374.039 56.3588 375.694 56.3588 377.68 56.3588L378.011 56.7154C378.342 56.7154 378.342 56.7154 378.673 57.072C378.673 57.4286 378.673 58.1418 378.673 58.4984C378.673 62.4212 378.673 65.9873 378.673 69.9101Z" fill="#FCFDFF"/>
<path fill-rule="evenodd" clip-rule="evenodd" d="M377.349 30.6826C377.68 30.6826 378.011 30.326 378.342 30.326C381.983 30.326 385.624 30.326 389.265 30.326C390.589 30.326 390.589 30.6826 390.589 32.1091C390.589 32.8223 390.589 33.5355 390.589 34.2487C390.589 35.3186 390.589 35.6752 389.596 35.6752C388.934 35.6752 388.603 35.6752 387.941 35.6752C386.948 35.6752 386.617 35.6752 386.617 37.1016C386.617 41.0244 386.617 44.9471 386.617 48.8699C386.617 49.5831 386.617 49.9397 386.617 50.2963C386.617 50.6529 386.617 51.0095 385.955 51.0095C385.955 51.0095 385.624 51.0095 385.293 51.0095C383.969 51.0095 382.976 51.0095 381.983 51.0095C381.321 51.0095 380.99 50.6529 380.99 49.9397C380.99 49.5831 380.99 49.2265 380.99 48.8699C380.99 44.9471 380.99 41.381 380.99 37.4582C380.99 37.1016 380.99 36.745 380.99 36.3884C380.99 36.0318 380.659 35.6752 380.659 35.6752C380.328 35.6752 379.666 35.6752 379.335 35.6752C378.673 35.6752 378.342 35.6752 377.68 35.6752C377.349 35.6752 377.018 35.3186 377.018 34.962C377.018 33.5355 377.018 32.1091 377.018 31.0392C377.018 30.6826 377.349 30.6826 377.349 30.6826Z" fill="#FCFDFF"/>
<path fill-rule="evenodd" clip-rule="evenodd" d="M307.175 51.0096C305.851 51.0096 302.21 51.0096 301.217 51.0096C301.217 50.6529 301.217 50.2963 301.217 50.2963C301.217 49.5831 301.217 49.2265 301.217 48.8699C301.217 43.5207 301.217 38.1715 301.217 32.4657C301.217 32.1091 301.217 31.7525 301.217 31.0392C301.217 30.6826 301.548 30.6826 301.879 30.6826C303.534 30.6826 305.189 30.6826 306.844 30.6826C307.175 31.0392 307.175 31.0392 307.175 31.3958C307.175 31.7525 307.175 32.1091 307.175 32.4657C307.175 38.1715 307.175 43.5207 307.175 49.2265C307.175 49.5831 307.175 50.2963 307.175 51.0096Z" fill="#FCFDFF"/>
<path fill-rule="evenodd" clip-rule="evenodd" d="M333.987 51.0095C333.656 50.2963 333.987 49.9397 333.987 49.2265C333.987 48.1566 333.987 46.7302 333.987 45.6603C333.987 41.381 333.987 37.1016 333.987 32.8223C333.987 32.1091 333.656 31.3958 333.987 30.6826C334.318 30.6826 334.649 30.6826 334.98 30.326C336.304 30.326 337.628 30.326 338.952 30.326C338.952 30.326 339.283 30.326 339.283 30.6826C339.614 30.6826 339.945 30.6826 339.945 31.3958C339.945 31.7524 339.945 31.7524 339.945 32.1091C339.945 37.8149 339.945 43.5207 339.945 49.2265C339.945 51.0095 339.945 51.0095 338.621 51.0095C337.297 51.0095 336.304 51.0095 335.311 51.0095C334.98 51.0095 334.318 51.0095 333.987 51.0095Z" fill="#FCFDFF"/>
<path fill-rule="evenodd" clip-rule="evenodd" d="M153.257 81.6783C152.926 82.0349 152.595 82.0349 152.264 82.0349C150.94 82.7482 149.616 83.1048 148.291 83.818C140.347 86.6709 132.403 89.8804 124.79 92.7333C124.128 92.7333 123.797 93.0899 123.466 93.0899C123.466 93.0899 123.135 93.0899 123.135 92.7333C123.135 92.3767 123.135 92.3767 123.135 92.0201C123.797 89.1672 124.128 86.3143 124.128 83.818C124.128 82.0349 124.128 80.2519 124.128 78.4688C124.128 75.9725 123.466 73.4762 123.135 70.9799C123.135 70.6233 123.135 70.6233 123.135 70.2667C123.466 70.2667 123.797 69.9101 123.797 70.2667C124.128 70.2667 124.459 70.2667 124.79 70.2667C131.079 72.763 137.368 75.2593 143.988 77.7556C146.636 78.8254 149.284 79.8953 151.933 80.9651C152.264 80.9651 152.595 80.9651 152.595 81.3217C152.926 81.3217 152.926 81.3217 153.257 81.6783Z" fill="#FFFBFC"/>
<path fill-rule="evenodd" clip-rule="evenodd" d="M76.4628 38.5281C82.752 38.5281 88.7101 39.9546 94.6683 43.1641C98.6403 45.3038 102.612 48.1567 105.923 52.0794C111.55 58.4985 114.86 65.9873 116.515 74.5461C116.846 76.6857 116.846 78.8254 116.846 80.9651C116.846 83.1048 116.846 85.2444 116.515 87.7407C116.184 91.3069 115.191 94.873 113.536 98.4391C111.881 102.718 109.895 106.285 106.916 109.851C103.605 114.13 99.3024 117.34 94.6683 119.836C91.3582 121.976 87.3861 123.402 83.414 124.115C80.7659 124.472 78.1179 124.828 75.1388 124.472C68.1876 124.115 61.5675 122.332 55.6093 118.409C47.6651 113.06 42.038 105.928 38.7279 96.2994C37.4039 93.0899 36.7419 89.5238 36.4109 86.3143C35.7489 78.4688 36.7419 71.3365 39.39 64.2043C41.376 60.2815 43.362 56.3588 46.3411 53.1493C50.9752 47.4435 56.9334 43.1641 63.5535 40.6678C66.5326 39.598 69.5117 39.2414 72.4907 38.8848C73.8148 38.5281 75.1388 38.5281 76.4628 38.5281ZM98.3093 80.6085C98.6403 80.2519 98.9714 80.2519 99.3024 79.8952C100.295 79.182 100.957 78.1122 101.288 76.6857C101.619 76.3291 101.619 75.6159 101.619 74.9027C101.619 72.0498 99.3024 69.5535 96.9853 69.1969C95.9923 69.1969 95.3303 68.8402 94.6683 68.8402C91.3582 68.8402 87.7171 68.8402 84.407 68.8402C84.076 68.8402 83.745 68.8402 83.745 68.8402C83.414 68.8402 83.083 69.1969 83.083 69.5535C83.083 69.9101 83.083 70.2667 83.083 70.6233C83.083 77.399 83.083 84.5312 83.083 91.6635C83.083 93.4465 83.083 93.4465 84.407 93.4465C87.3861 93.4465 90.3652 93.4465 93.3442 93.4465C94.6683 93.4465 96.3233 93.0899 97.6473 93.0899C99.3024 92.7333 100.295 91.6635 101.288 90.237C101.95 88.8106 102.281 87.3841 102.281 85.6011C101.95 83.818 101.288 82.3915 99.6334 81.3217C99.3024 81.3217 98.9714 81.3217 98.6403 80.9651C98.6403 80.9651 98.6403 80.9651 98.3093 80.6085ZM51.9682 80.9651C51.9682 84.5312 51.9682 88.0973 51.9682 91.6635C51.9682 92.0201 51.9682 92.3767 51.9682 92.7333C51.9682 93.0899 52.2993 93.0899 52.6303 93.4465C52.9613 93.4465 53.2923 93.4465 53.6233 93.4465C58.2574 93.4465 62.8915 93.4465 67.5256 93.4465C67.5256 93.4465 67.8566 93.4465 68.1876 93.4465C68.8496 93.4465 69.1807 93.0899 69.1807 92.3767C69.1807 91.3069 69.1807 90.237 69.1807 89.1672C69.1807 87.7407 69.1807 87.7407 67.5256 87.7407C65.2086 87.7407 62.8915 87.7407 60.5745 87.7407C60.2434 87.7407 59.9124 87.7407 59.5814 87.3841C59.2504 87.3841 58.9194 87.3841 58.9194 87.0275C58.9194 86.3143 58.9194 85.6011 58.9194 85.2444C58.9194 83.4614 58.9194 83.4614 60.5745 83.4614C62.2295 83.4614 63.8845 83.4614 65.5396 83.4614C65.8706 83.4614 66.2016 83.4614 66.5326 83.4614C66.8636 83.4614 66.8636 83.1048 67.1946 82.7482C67.1946 82.7482 67.1946 82.7482 67.1946 82.3915C67.1946 81.3217 67.1946 80.2519 67.1946 79.182C67.1946 79.182 67.1946 79.182 67.1946 78.8254C67.1946 78.4688 66.8636 78.4688 66.5326 78.1122C66.2016 78.1122 65.8706 78.1122 65.5396 78.1122C63.8845 78.1122 62.2295 78.1122 60.5745 78.1122C60.2434 78.1122 59.9124 78.1122 59.5814 78.1122C59.2504 78.1122 58.9194 77.7556 58.9194 77.399C58.9194 76.6857 58.9194 75.9725 58.9194 75.2593C58.9194 74.9027 59.2504 74.5461 59.5814 74.5461C59.9124 74.5461 60.2434 74.5461 60.5745 74.5461C62.8915 74.5461 65.2086 74.5461 67.5256 74.5461C67.8566 74.5461 67.8566 74.5461 68.1876 74.5461C68.8496 74.5461 69.1807 74.1894 69.1807 73.4762C69.1807 72.4064 69.1807 71.6931 69.1807 70.6233C69.1807 68.8402 69.1807 68.8402 67.5256 68.8402C62.8915 68.8402 58.2574 68.8402 53.6233 68.8402C51.9682 68.8402 51.9682 68.8402 51.9682 70.6233C51.9682 74.1894 51.9682 77.7556 51.9682 80.9651ZM79.1109 81.3217C79.1109 77.7556 79.1109 74.5461 79.1109 70.9799C79.1109 70.6233 79.1109 70.2667 79.1109 69.9101C79.1109 69.1969 78.7799 68.8402 78.1179 68.8402C76.4628 68.8402 74.8078 68.8402 73.1527 68.8402H72.8217C72.4907 69.1969 72.1597 69.1969 72.1597 69.9101C72.1597 70.2667 72.1597 70.6233 72.1597 70.9799C72.1597 77.7556 72.1597 84.5312 72.1597 91.3069C72.1597 91.6635 72.1597 92.0201 72.1597 92.3767C72.1597 93.0899 72.1597 93.4465 72.8217 93.4465C73.1527 93.4465 73.4838 93.4465 73.8148 93.4465C74.8078 93.4465 76.1318 93.4465 77.4558 93.4465C79.1109 93.4465 79.1109 93.4465 79.1109 91.6635C79.1109 88.0973 79.1109 84.5312 79.1109 81.3217Z" fill="#FFFBFC"/>
<path fill-rule="evenodd" clip-rule="evenodd" d="M117.177 54.5757C116.846 54.2191 116.515 54.2191 116.515 53.8625C115.522 52.436 114.529 51.0096 113.536 49.5831C110.888 46.017 107.909 43.1641 104.929 40.6678C103.936 40.3112 103.274 39.598 102.612 38.8847C102.281 38.8847 101.95 38.5281 101.95 38.1715L102.281 37.8149C103.274 37.4583 103.936 37.1017 104.929 36.3884C108.902 34.6054 112.874 32.4657 117.177 30.326C121.149 28.543 125.121 26.4033 129.093 24.2636C129.424 24.2636 130.086 23.907 130.417 23.907C130.748 23.5504 130.748 23.907 130.748 24.2636C130.748 24.6202 130.748 24.6202 130.417 24.9768C129.755 26.7599 129.093 28.1863 128.431 29.9694C126.114 34.6054 124.128 39.2414 122.142 44.2339C120.818 47.0868 119.494 49.9397 118.17 52.436C118.17 53.1493 117.839 54.2191 117.177 54.5757Z" fill="#FFFBFC"/>
<path fill-rule="evenodd" clip-rule="evenodd" d="M101.95 125.185C101.95 124.472 102.281 124.472 102.612 124.115C104.267 123.045 105.591 121.619 106.915 120.549C109.564 118.409 111.55 115.913 113.536 113.417C114.529 111.99 115.522 110.921 116.515 109.494C116.515 109.137 116.846 108.781 117.177 108.781C117.508 108.781 117.508 109.137 117.839 109.494C118.832 111.634 119.825 114.13 120.818 116.27C122.142 119.479 123.797 122.689 125.121 125.898C126.776 129.821 128.762 134.1 130.417 138.38C130.748 138.38 130.748 138.736 130.748 138.736C130.748 139.093 130.748 139.45 130.417 139.45C130.086 139.093 129.755 139.093 129.424 139.093C127.769 138.023 126.114 137.31 124.128 136.24C119.494 134.1 114.86 131.604 110.226 129.464C107.909 128.038 105.26 126.612 102.612 125.542C102.281 125.542 102.281 125.185 101.95 125.185Z" fill="#FFFBFC"/>
<path fill-rule="evenodd" clip-rule="evenodd" d="M36.0798 108.781C36.4108 108.781 36.4108 109.137 36.7418 109.494C38.0659 111.277 39.0589 113.06 40.3829 114.487C42.038 116.983 44.024 118.766 46.01 120.549C47.6651 121.619 48.9891 123.045 50.3131 124.115C50.6442 124.472 50.9752 124.472 50.9752 124.828C50.9752 125.185 50.6442 125.542 50.3131 125.542C48.9891 126.255 47.6651 126.968 46.3411 127.681C42.369 129.464 38.7279 131.248 35.0868 133.387C31.1147 135.17 27.1426 136.953 23.5015 139.093C23.1705 139.093 22.8395 139.093 22.5085 139.45L22.1775 139.093C22.5085 138.736 22.5085 138.38 22.5085 138.38C22.8395 137.31 23.5015 136.24 23.8325 135.17C25.8186 130.534 27.8046 125.898 30.1217 121.619C31.7767 117.34 33.4318 113.417 35.0868 109.494C35.4178 109.137 35.4178 108.781 36.0798 108.781Z" fill="#FFFBFC"/>
<path fill-rule="evenodd" clip-rule="evenodd" d="M29.7907 69.9101C30.1217 70.6233 29.7907 70.9799 29.7907 71.3365C29.4597 73.1196 29.4597 74.9027 29.1287 77.0424C29.1287 77.399 29.1287 78.1122 29.1287 78.8254C29.1287 80.9651 28.7977 83.1048 29.1287 85.2445C29.1287 87.3841 29.4597 89.5238 29.7907 91.6635C29.7907 92.0201 29.7907 92.3767 30.1217 92.7333C30.1217 93.0899 29.7907 93.0899 29.4597 93.0899C29.1287 93.0899 28.7977 93.0899 28.4667 92.7333C25.4876 91.6635 22.1775 90.237 18.8674 89.1672C14.8953 87.7407 10.9233 85.9577 7.28217 84.5312C4.96512 83.818 2.97907 83.1048 0.993023 82.3916C0.662015 82.0349 0.331008 82.0349 0 81.6783C0 81.3217 0.331008 81.3217 0.662015 80.9651C1.32403 80.6085 2.31705 80.2519 3.31008 79.8953C11.5853 76.6857 20.1915 73.4762 28.4667 70.2667C28.7977 70.2667 29.4597 69.9101 29.7907 69.9101Z" fill="#FFFBFC"/>
<path fill-rule="evenodd" clip-rule="evenodd" d="M51.3062 38.1715C50.9752 38.8847 50.6442 38.8847 50.3131 39.2413C48.9891 40.3112 47.3341 41.381 46.01 42.8075C42.7 45.6604 40.0519 48.8699 37.7349 52.436C37.0728 52.7926 36.7418 53.5059 36.4108 54.2191L36.0798 54.5757C35.4178 54.5757 35.4178 54.2191 35.4178 53.8625C34.4248 52.0794 33.7628 50.653 33.1007 48.8699C31.4457 44.9472 29.7907 41.381 28.1356 37.4583C26.4806 33.5355 24.4945 29.2562 22.8395 25.3334C22.5085 24.9768 22.1775 24.6202 22.1775 23.907C22.5085 23.907 22.5085 23.907 22.8395 23.907C23.1705 23.907 23.1705 23.907 23.5015 24.2636C26.4806 25.69 29.4597 27.1165 32.4387 28.543C38.0659 31.3959 43.693 34.2488 49.6511 37.1017C49.9821 37.4583 50.3131 37.4583 50.6442 37.8149C50.9752 37.8149 50.9752 38.1715 51.3062 38.1715Z" fill="#FFFBFC"/>
<path fill-rule="evenodd" clip-rule="evenodd" d="M65.5396 131.248C65.8706 131.248 66.2016 131.248 66.5326 131.248C67.8566 131.604 69.1806 131.604 70.8357 131.961C73.8147 132.317 76.7938 132.317 79.7729 132.317C82.0899 131.961 84.076 131.604 86.393 131.248C86.724 131.248 87.0551 131.248 87.0551 131.248C87.3861 131.604 87.3861 131.961 87.0551 132.317C86.724 133.744 86.062 135.527 85.731 136.953C83.745 142.303 82.0899 147.652 80.1039 153.001C79.1109 155.854 78.1178 158.707 77.1248 161.916C77.1248 162.273 76.7938 162.629 76.4628 162.986C76.1318 162.986 76.1318 162.629 76.1318 162.629C75.8008 161.56 75.4698 160.49 75.1388 159.777C72.1597 150.505 68.8496 141.589 65.8706 132.674C65.8706 132.317 65.5396 131.961 65.5396 131.248Z" fill="#FFFBFC"/>
<path fill-rule="evenodd" clip-rule="evenodd" d="M87.3861 31.7527C86.7241 32.1093 86.3931 31.7527 86.0621 31.7527C83.745 31.396 81.097 31.0394 78.7799 31.0394C74.8078 30.6828 70.8357 31.0394 67.1946 31.7527C66.5326 31.7527 66.2016 32.1093 65.8706 32.1093C65.8706 31.7527 65.8706 31.396 65.8706 31.396C66.2016 30.3262 66.2016 29.613 66.5326 28.8998C69.5117 20.341 72.1598 12.1389 75.1388 3.93684C75.4698 2.867 75.8008 1.79716 76.1318 0.727325C76.1318 0.727325 76.4629 0.370712 76.4629 0.0140991C76.7939 0.370712 76.7939 0.370712 76.7939 0.727325C77.1249 1.44055 77.4559 2.51039 77.7869 3.22362C80.4349 11.0691 83.083 18.9146 85.7311 26.7601C86.3931 28.1865 86.7241 29.2564 87.0551 30.6828C87.0551 31.0394 87.3861 31.396 87.3861 31.7527Z" fill="#FFFBFC"/>
<path fill-rule="evenodd" clip-rule="evenodd" d="M92.0202 87.7407C91.3582 87.7407 90.6961 87.7407 90.3651 87.7407C89.7031 87.7407 89.7031 87.7407 89.7031 87.0275C89.7031 85.9576 89.7031 85.2444 89.7031 84.1746C89.7031 83.818 89.7031 83.4614 90.3651 83.4614C91.3582 83.4614 92.6822 83.1047 94.0062 83.4614C94.9992 83.818 95.6613 84.8878 95.3303 85.9576C95.3303 87.0275 94.6682 87.7407 93.6752 87.7407C93.0132 88.0973 92.3512 88.0973 92.0202 88.0973V87.7407Z" fill="#FFFBFC"/>
<path fill-rule="evenodd" clip-rule="evenodd" d="M92.0202 74.1895C92.3512 74.1895 92.6822 74.1895 93.3442 74.1895C94.3372 74.1895 94.9992 74.9027 94.9992 75.9725C94.9992 77.0424 94.3372 78.1122 93.3442 78.1122C92.3512 78.4688 91.3582 78.4688 90.3651 78.4688C89.7031 78.1122 89.7031 78.1122 89.7031 77.399C89.7031 76.6857 89.7031 75.9725 89.7031 74.9027C89.7031 74.5461 89.7031 74.1895 90.3651 74.1895C90.6961 74.1895 91.3582 74.1895 92.0202 74.1895Z" fill="#FFFBFC"/>
</g>
<defs>
<clipPath id="clip0_103_115">
<rect width="427" height="163" fill="white"/>
</clipPath>
</defs>
</svg>
