<?xml version="1.0" encoding="UTF-8"?>
<!DOCTYPE svg PUBLIC "-//W3C//DTD SVG 1.1//EN" "http://www.w3.org/Graphics/SVG/1.1/DTD/svg11.dtd">
<!-- Creator: CorelDRAW X7 -->
<svg xmlns="http://www.w3.org/2000/svg" xml:space="preserve" width="1191px" height="422px" version="1.1" style="shape-rendering:geometricPrecision; text-rendering:geometricPrecision; image-rendering:optimizeQuality; fill-rule:evenodd; clip-rule:evenodd"
viewBox="0 0 1290 457"
 xmlns:xlink="http://www.w3.org/1999/xlink">
 <defs>
  <style type="text/css">
   <![CDATA[
    .fil0 {fill:#1E2E6D}
    .fil1 {fill:#E30613}
   ]]>
  </style>
 </defs>
 <g id="Capa_x0020_1">
  <metadata id="CorelCorpID_0Corel-Layer"/>
  <g id="_2931259614848">
   <path class="fil0" d="M842 317c1,4 3,8 4,12 2,3 3,7 5,10 1,4 3,7 4,11 2,4 3,7 5,11 1,3 3,7 4,11 -1,0 -1,0 -2,1 -1,0 -1,0 -2,0 -12,0 -23,0 -35,0 -4,0 -4,0 -6,-5 -5,-13 -10,-27 -15,-40 -1,0 -1,-1 -1,-2 -1,-1 -2,-2 -3,-2 -3,0 -6,0 -8,0 -1,0 -1,0 -2,1 0,0 0,1 0,2 0,1 0,2 0,3 0,12 0,23 0,35 0,1 0,2 0,3 0,4 0,5 -4,5 -11,0 -21,0 -32,0 -1,0 -1,0 -1,0 -2,-1 -3,-1 -3,-3 0,-1 0,-2 0,-3 0,-39 0,-77 0,-116 0,-1 0,-2 0,-3 0,-2 1,-2 2,-2 1,-1 2,-1 3,-1 19,0 39,0 59,1 7,0 14,0 20,1 5,2 10,3 14,6 7,5 12,11 15,20 2,10 1,20 -3,29 -2,4 -5,7 -8,9 -3,2 -5,3 -8,5 -1,0 -1,1 -2,1zm-40 -44c0,0 0,0 0,0 -3,0 -6,0 -9,0 -2,0 -3,1 -3,3 0,6 0,12 0,18 0,2 1,2 2,2 6,0 12,1 18,0 3,0 5,-1 8,-2 3,-2 4,-5 4,-9 0,-1 0,-1 0,-2 0,-4 -2,-6 -5,-8 -2,-1 -4,-2 -6,-2 -3,0 -6,0 -9,0z"/>
   <path class="fil0" d="M1284 372c-1,1 -2,1 -3,1 -2,0 -4,0 -6,0 -10,0 -19,0 -29,0 -1,0 -1,0 -2,0 -2,0 -4,-1 -5,-4 -5,-14 -10,-27 -16,-41 -1,-4 -1,-4 -5,-4 -2,0 -4,0 -6,0 -2,0 -2,1 -2,2 0,1 0,2 0,3 0,13 0,26 0,38 0,1 0,2 0,3 0,2 -1,2 -2,2 -1,1 -1,1 -2,1 -11,0 -21,0 -32,0 -1,0 -2,0 -3,-1 -1,-2 -1,-4 -1,-5 0,-29 0,-58 0,-87 0,-9 0,-19 0,-29 0,-1 0,-2 0,-3 0,-2 1,-2 2,-2 1,-1 2,-1 3,-1 19,0 39,0 59,1 7,0 14,0 20,1 5,2 10,4 14,6 15,10 18,26 15,41 -2,8 -6,14 -13,18 -2,2 -4,3 -6,4 0,0 -1,1 -2,1 0,2 1,3 1,4 4,9 8,19 12,28 3,7 5,13 8,20 0,1 1,2 1,3zm-73 -76c0,0 0,0 1,0 6,0 12,1 18,0 3,0 6,-1 8,-2 3,-3 5,-6 5,-10 -1,-4 -2,-7 -5,-9 -2,-1 -5,-2 -7,-2 -6,0 -12,0 -19,0 -2,0 -2,1 -2,3 0,0 0,0 0,1 0,5 0,11 0,16 0,1 0,2 1,3z"/>
   <path class="fil0" d="M881 246c1,0 2,0 2,-1 1,0 2,0 4,0 15,0 31,0 47,0 6,0 12,1 18,1 7,0 13,2 18,6 9,6 14,15 15,27 0,11 -5,19 -13,24 -2,1 -3,2 -5,2 -1,1 -1,1 -2,1 1,1 2,1 3,2 4,1 8,3 12,6 4,4 6,9 7,14 2,10 0,20 -4,28 -4,7 -9,11 -16,13 -4,2 -9,2 -14,3 -5,0 -10,1 -15,1 -17,0 -35,0 -52,0 -1,0 -2,0 -3,-1 -2,0 -2,0 -3,-2 0,-1 0,-2 0,-3 0,-38 0,-77 0,-116 0,-2 0,-3 1,-5zm37 76c-1,1 -1,2 -1,3 0,5 0,10 0,15 0,0 0,1 0,1 0,2 1,3 3,3 0,0 1,0 2,0 4,0 8,0 12,0 2,0 4,0 6,-1 1,0 3,-1 4,-1 3,-2 5,-5 5,-9 0,-4 -1,-7 -5,-9 0,-1 -1,-1 -2,-2 -2,0 -4,0 -6,0 -5,-1 -10,-1 -15,-1 -1,0 -2,1 -3,1zm10 -28c0,0 0,0 0,0 3,0 5,0 8,0 1,0 2,0 3,-1 3,0 5,-2 6,-4 3,-4 3,-12 -3,-14 -2,-1 -4,-2 -5,-2 -6,0 -12,0 -18,0 -1,0 -2,1 -2,3 0,5 0,10 0,15 0,2 1,3 3,3 3,0 6,0 8,0z"/>
   <path class="fil0" d="M510 372c-1,-1 -1,-1 -1,-2 0,-1 0,-2 0,-3 0,-39 0,-77 0,-116 0,-1 0,-3 1,-5 1,-1 2,-1 4,-1 4,0 8,0 12,0 13,0 26,0 39,0 5,0 11,1 16,1 5,0 9,1 13,3 12,5 18,15 19,28 1,9 -2,17 -8,23 -3,2 -5,4 -8,5 -1,0 -2,1 -3,1 0,1 1,1 1,1 3,1 6,2 8,4 8,4 13,11 13,21 1,11 -2,21 -8,29 -3,4 -6,6 -10,7 -3,2 -7,3 -11,3 -6,1 -12,2 -18,2 -18,0 -36,0 -55,0 -1,0 -3,0 -4,-1zm47 -51c0,0 0,0 0,0 -1,0 -3,0 -4,0 -2,0 -3,0 -5,1 -1,0 -2,0 -2,2 0,0 0,1 0,1 0,5 0,10 0,15 0,3 0,4 3,4 5,0 10,0 15,0 2,0 4,-1 6,-1 2,-1 5,-2 6,-5 2,-2 2,-4 2,-6 -1,-5 -3,-8 -7,-9 -2,-1 -4,-1 -6,-1 -3,-1 -5,-1 -8,-1zm0 -27c2,0 4,0 6,0 2,0 3,0 5,-1 3,0 6,-2 7,-6 2,-5 0,-11 -5,-13 -1,0 -3,-1 -4,-1 -6,0 -12,0 -18,0 -2,0 -2,1 -2,3 0,4 0,7 0,11 0,1 0,3 0,4 0,2 1,2 2,3 1,0 1,0 2,0 3,0 5,0 7,0z"/>
   <path class="fil0" d="M1146 294c0,1 0,2 0,3 0,7 0,14 0,20 0,1 0,2 0,2 0,2 0,2 -2,2 -1,1 -2,1 -3,1 -12,0 -24,0 -37,0 -1,0 -2,0 -3,0 -1,0 -1,0 -1,1 0,1 0,1 0,2 0,4 0,9 0,13 0,1 0,1 0,2 0,1 0,1 1,2 1,0 2,0 3,0 16,0 32,0 48,0 1,0 3,0 4,0 1,0 1,1 1,2 0,0 1,1 1,2 0,8 0,15 0,22 0,4 -1,5 -5,5 -9,0 -18,0 -27,0 -20,0 -40,0 -60,0 -2,0 -3,0 -5,-1 0,-1 0,-1 0,-2 0,-1 0,-2 0,-3 0,-39 0,-77 0,-116 0,-1 -1,-3 0,-5 1,0 2,0 2,0 1,-1 3,-1 4,-1 28,0 56,0 85,0 1,0 2,0 3,1 2,0 2,0 3,2 0,1 0,2 0,2 0,7 0,14 0,21 0,4 -1,4 -5,4 -16,0 -32,0 -48,0 -1,0 -2,0 -3,0 -2,1 -2,1 -2,3 0,3 0,6 0,9 0,1 0,2 0,4 0,1 0,2 2,2 1,0 2,0 3,0 12,0 24,0 36,0 2,0 3,0 5,1z"/>
   <path class="fil0" d="M741 372c-1,0 -2,1 -3,1 -11,0 -23,0 -34,0 0,0 0,0 0,0 -2,0 -3,-1 -4,-4 -2,-5 -3,-11 -5,-17 0,-1 -1,-2 -1,-3 0,-1 -1,-2 -2,-2 -1,0 -2,0 -2,0 -9,0 -18,0 -26,0 -4,0 -4,0 -6,4 -1,6 -3,12 -5,17 0,1 0,2 -1,3 0,1 -1,1 -2,1 -1,1 -2,1 -2,1 -8,0 -16,0 -24,0 -1,0 -2,0 -4,-1 0,-1 0,-2 1,-3 1,-3 2,-6 3,-10 6,-19 12,-39 18,-58 5,-17 11,-34 16,-51 1,-4 1,-5 6,-5 11,0 22,0 33,0 0,0 0,0 1,0 3,1 3,1 4,4 4,12 8,24 12,36 7,22 14,45 21,67 2,5 3,11 5,16 0,1 1,2 1,4zm-65 -86c0,0 0,1 0,1 -1,3 -2,6 -3,9 -2,6 -3,13 -5,19 0,1 -1,2 0,4 0,0 0,0 1,0 5,0 10,0 16,0 0,0 0,0 1,0 0,-1 0,-2 0,-3 -3,-7 -8,-29 -10,-30z"/>
   <path class="fil0" d="M1041 309c0,19 0,38 0,57 0,1 0,3 0,4 0,2 0,2 -2,3 -1,0 -2,0 -2,0 -10,0 -21,0 -31,0 -4,0 -5,-1 -5,-6 0,-39 0,-78 0,-117 0,-4 1,-5 5,-5 10,0 21,0 31,0 4,0 4,1 4,5 0,19 0,37 0,56 0,1 0,2 0,3z"/>
   <path class="fil0" d="M658 196c1,-2 1,-3 1,-5 3,-9 5,-18 8,-28 1,-5 1,-5 5,-5 8,0 15,0 22,0 4,0 4,1 4,5 0,3 0,7 0,10 0,18 0,36 0,53 0,2 0,3 0,5 0,1 -1,1 -2,1 -1,1 -1,1 -2,1 -5,0 -9,0 -14,0 0,0 -1,0 -1,-1 -2,0 -3,0 -3,-2 0,-1 0,-2 0,-3 0,-14 0,-27 0,-41 0,-1 0,-1 0,-3 -1,1 -1,3 -1,4 -3,13 -7,26 -10,39 -1,1 -1,3 -1,4 -1,2 -2,2 -3,2 -2,1 -3,1 -5,1 -2,0 -3,-1 -5,0 -2,0 -3,-1 -3,-3 0,-1 -1,-2 -1,-3 -4,-14 -8,-29 -11,-43 0,0 -1,0 -1,-1 0,1 0,1 0,2 0,6 0,12 0,19 0,8 0,15 0,23 0,5 0,6 -5,6 -2,0 -5,0 -8,0 -1,0 -1,0 -2,0 -2,-1 -2,-1 -2,-4 0,0 0,-1 0,-1 0,-22 0,-43 0,-65 0,-1 -1,-3 0,-4 1,0 2,-1 3,-1 8,0 15,0 23,0 1,0 1,0 2,1 1,0 1,0 2,1 0,1 0,2 0,3 3,10 6,20 9,30 0,1 0,2 1,3z"/>
   <path class="fil0" d="M1099 200c1,2 1,4 2,5 3,8 6,15 9,23 1,1 2,2 1,4 0,1 -1,1 -2,1 -3,0 -6,0 -9,0 -3,0 -6,-1 -10,0 -2,0 -4,-1 -5,-4 -1,-4 -3,-8 -4,-12 -1,-3 -3,-6 -4,-10 0,-2 -2,-3 -4,-3 -3,0 -4,0 -4,4 0,7 0,13 0,19 0,1 0,2 0,3 0,2 0,2 -2,2 0,1 -1,1 -2,1 -5,0 -9,0 -14,0 -2,0 -3,0 -4,-1 0,-1 0,-1 0,-2 0,-1 0,-2 0,-3 0,-21 0,-42 0,-63 0,-1 0,-2 0,-4 0,-1 0,-1 1,-1 1,0 2,-1 3,-1 12,0 24,0 35,0 5,0 9,1 13,3 5,2 8,5 11,9 3,7 3,14 0,21 -1,3 -3,5 -5,6 -2,1 -4,2 -6,3zm-22 -25c0,0 0,0 0,0 -2,0 -3,0 -5,0 -2,0 -2,0 -2,2 0,3 0,6 0,8 0,2 0,3 2,3 3,0 6,0 9,0 1,0 2,-1 4,-1 2,-1 3,-3 3,-6 0,-3 -1,-4 -3,-5 -2,-1 -3,-1 -4,-1 -2,0 -3,0 -4,0z"/>
   <path class="fil0" d="M832 194c1,0 2,1 2,1 2,1 3,1 4,2 4,3 6,6 7,10 1,8 -1,14 -5,19 -2,2 -5,4 -7,5 -4,1 -8,1 -12,1 -11,1 -23,1 -34,1 -4,0 -4,-1 -4,-5 0,-2 0,-5 0,-8 0,-18 0,-36 0,-55 0,-1 0,-2 0,-4 0,-2 1,-2 3,-3 0,0 1,0 1,0 12,0 23,0 34,0 4,0 7,1 10,2 5,2 8,5 10,10 3,6 3,15 -3,20 -1,1 -2,2 -4,3 0,0 -1,0 -2,1zm-21 22c0,0 0,0 0,0 1,0 3,0 4,0 1,-1 3,-1 4,-1 2,-1 3,-3 3,-6 0,-3 -1,-5 -4,-6 -4,0 -8,0 -12,0 -1,0 -2,0 -2,2 0,3 0,6 0,9 0,1 1,2 2,2 2,0 3,0 5,0zm0 -30c0,0 0,0 0,0 1,0 3,0 4,0 1,0 2,0 3,0 2,-1 3,-3 3,-6 0,-2 -1,-4 -3,-4 -1,-1 -1,-1 -2,-1 -3,-1 -7,0 -10,0 -1,0 -2,1 -2,2 0,2 0,5 0,7 0,2 1,2 2,2 2,0 3,0 5,0z"/>
   <path class="fil0" d="M562 189c1,7 0,14 0,20 0,7 0,13 0,20 0,1 0,1 0,2 0,1 -1,1 -1,1 -1,0 -1,1 -2,1 -4,0 -8,0 -12,0 -1,0 -2,0 -3,-2 0,-1 0,-2 0,-3 0,-22 0,-43 0,-65 0,-4 0,-5 4,-5 4,0 9,0 13,0 5,0 4,0 7,4 4,7 8,14 12,20 3,5 5,9 8,13 0,0 0,0 1,1 0,-2 0,-3 -1,-4 0,-2 0,-4 0,-5 0,-2 0,-3 0,-5 0,-1 0,-3 0,-5 0,-1 0,-3 0,-4 0,-2 0,-3 0,-5 0,-1 0,-3 0,-5 0,-1 0,-3 1,-4 0,0 0,0 1,0 4,0 9,-1 14,-1 1,0 1,1 2,1 0,1 1,1 1,2 0,1 0,2 0,4 0,20 0,41 0,61 0,2 0,3 0,4 0,2 -1,2 -2,2 -1,1 -2,1 -2,1 -4,0 -8,-1 -12,0 -2,0 -4,-1 -5,-3 -2,-4 -4,-7 -6,-10 -5,-9 -10,-18 -16,-27 -1,-1 -1,-2 -2,-4z"/>
   <path class="fil0" d="M1186 233c-4,1 -9,0 -13,-2 -11,-4 -18,-13 -21,-25 -1,-7 -1,-14 1,-21 3,-14 11,-23 23,-26 7,-2 15,-2 22,0 13,4 21,14 23,29 1,7 1,14 -1,20 -4,13 -11,21 -23,24 -3,1 -7,2 -11,1zm11 -38c0,0 0,0 0,0 0,-2 0,-4 0,-6 -1,-3 -1,-6 -3,-9 -3,-7 -10,-7 -14,-2 -1,2 -2,4 -2,6 -1,3 -1,6 -2,9 0,4 0,8 1,13 0,1 1,2 1,3 2,5 5,7 10,7 3,0 5,-2 6,-5 1,-1 2,-3 2,-5 0,-4 1,-7 1,-11z"/>
   <path class="fil0" d="M775 195c0,3 0,6 0,9 -3,15 -11,25 -25,28 -8,3 -17,2 -25,-1 -9,-5 -15,-12 -18,-23 -3,-10 -3,-20 2,-30 4,-12 13,-18 24,-20 6,-1 12,-1 18,1 3,1 7,2 11,5 8,6 12,15 13,26 0,1 0,2 0,2 0,1 0,2 0,3 0,0 0,0 0,0zm-24 0c0,-2 0,-3 0,-4 -1,-4 -1,-7 -2,-11 -2,-3 -4,-5 -8,-5 -3,0 -6,1 -8,5 -1,1 -2,3 -2,5 -1,7 -1,14 0,21 0,2 1,4 2,6 3,5 12,6 15,0 0,-1 1,-3 1,-4 1,-5 2,-9 2,-13z"/>
   <path class="fil0" d="M1222 211c1,-1 2,-1 3,-1 5,-1 10,-2 15,-3 2,0 3,0 4,2 1,4 5,6 9,6 2,1 4,1 6,1 1,-1 3,-1 4,-2 2,-1 2,-4 0,-6 -1,0 -2,-1 -3,-1 -2,-1 -3,-1 -5,-1 -4,-1 -8,-2 -12,-3 -2,-1 -5,-2 -7,-3 -10,-5 -14,-19 -7,-31 2,-4 6,-6 10,-8 3,-2 7,-3 10,-3 5,-1 9,-1 14,0 6,1 11,3 16,7 2,2 4,5 6,8 0,1 0,1 0,2 0,1 -1,1 -1,1 -5,2 -11,3 -16,5 0,0 0,0 -1,0 0,-1 -1,-2 -2,-2 0,-1 -1,-2 -2,-3 -4,-2 -8,-3 -12,-1 -1,0 -2,1 -2,2 -1,1 -1,3 1,4 1,1 2,1 3,2 3,1 6,1 9,2 4,1 8,2 12,3 4,1 6,4 9,6 7,8 6,21 0,28 -3,4 -7,7 -11,8 -3,2 -7,3 -10,3 -7,1 -13,1 -20,-1 -3,-1 -6,-2 -9,-4 -5,-3 -8,-8 -10,-14 -1,-1 -1,-2 -1,-3z"/>
   <path class="fil0" d="M1041 232c-1,0 -2,1 -3,1 -5,0 -11,0 -16,0 -1,0 -1,0 -1,0 -2,0 -3,-1 -3,-3 -1,-3 -2,-5 -3,-8 -1,-4 -1,-4 -5,-4 -4,0 -8,0 -12,0 -3,0 -3,0 -4,3 -1,3 -2,6 -3,9 0,2 -1,3 -3,3 -5,-1 -9,0 -13,0 -1,0 -1,-1 -2,-1 -1,-1 0,-2 0,-3 1,-4 2,-8 3,-12 6,-16 11,-33 16,-50 1,-2 1,-4 2,-7 0,-1 1,-1 2,-1 1,-1 1,-1 2,-1 6,0 12,0 17,0 1,0 1,0 2,0 1,0 2,1 2,2 0,1 1,2 1,3 5,16 10,32 15,48 2,6 3,11 5,17 1,1 1,2 1,4zm-37 -49c-1,5 -3,11 -4,16 0,0 0,1 0,2 3,0 5,0 8,0 0,0 1,-1 1,-1 0,-3 -3,-13 -5,-17z"/>
   <path class="fil0" d="M558 86c1,0 2,-1 3,-1 5,0 11,0 16,0 1,0 2,1 2,1 1,0 2,0 2,1 0,1 0,2 1,3 2,6 3,13 5,19 1,2 1,3 2,5 0,-1 1,-1 1,-2 2,-7 4,-15 6,-22 1,-5 1,-5 5,-5 5,0 10,0 15,0 1,0 1,0 1,0 3,1 3,1 4,4 0,2 0,4 0,6 0,14 0,28 0,42 0,1 0,2 0,3 -1,3 -1,3 -3,3 0,0 -1,0 -1,0 -3,0 -7,0 -10,0 -1,0 -2,0 -3,0 -1,-1 0,-3 0,-4 0,-3 0,-7 0,-10 0,-7 0,-13 0,-20 0,-1 -1,-2 -1,-3 0,1 0,2 -1,2 -2,10 -5,19 -7,29 -1,1 -1,3 -1,4 -1,1 -1,2 -2,2 -3,0 -6,0 -9,0 -1,0 -1,-1 -2,-1 0,-1 -1,-3 -1,-4 -3,-10 -5,-19 -8,-29 0,-1 0,-3 -1,-4 0,1 0,3 0,4 0,9 0,19 0,29 0,5 0,5 -5,5 -2,0 -5,0 -7,0 -1,0 -2,-1 -2,-2 0,-1 0,-2 0,-3 0,-16 0,-32 0,-48 0,-1 0,-3 1,-4z"/>
   <path class="fil0" d="M968 115c1,-2 1,-2 1,-3 2,-7 4,-14 6,-22 0,0 0,-1 0,-1 1,-3 2,-3 4,-4 6,0 12,0 18,0 1,0 2,1 2,1 2,2 1,3 1,5 0,14 0,28 0,43 0,2 0,4 0,5 0,2 0,3 -1,4 0,0 -1,0 -2,0 -3,0 -7,0 -10,0 -1,0 -2,0 -2,0 -1,0 -1,-1 -2,-2 0,-1 0,-2 0,-3 0,-10 0,-20 0,-30 0,-1 0,-2 0,-3 -1,1 -1,2 -1,3 -2,8 -4,17 -7,25 0,3 -1,5 -2,8 0,1 -1,2 -2,2 -3,0 -5,0 -8,0 -1,0 -2,-1 -2,-2 -1,-1 -1,-2 -1,-3 -3,-10 -6,-20 -8,-30 -1,-1 -1,-1 -2,-2 0,1 0,3 0,4 0,9 0,19 0,28 0,2 1,3 0,5 -1,0 -1,0 -1,0 -4,0 -7,0 -10,0 -2,0 -2,-1 -2,-2 0,-1 0,-2 0,-3 0,-16 0,-32 0,-47 0,-6 0,-6 4,-6 5,0 10,0 15,0 1,0 2,0 2,0 2,0 2,1 3,3 0,0 0,1 0,2 2,7 4,15 6,22 1,0 1,1 1,3z"/>
   <path class="fil0" d="M727 118c-1,2 0,2 0,3 3,6 5,12 8,18 0,1 1,2 1,4 -1,0 -2,0 -2,0 -5,0 -10,0 -15,0 -2,0 -3,-1 -4,-3 -2,-4 -3,-9 -5,-14 -1,-1 -1,-2 -1,-2 -1,-2 -2,-3 -3,-3 -3,0 -4,1 -4,4 0,4 0,9 0,14 0,4 0,4 -4,4 -3,0 -6,0 -10,0 0,0 -1,0 -1,0 -2,0 -2,0 -3,-3 0,0 0,-1 0,-2 0,-16 0,-32 0,-48 0,-4 1,-5 5,-5 9,0 18,0 27,0 3,0 6,1 9,2 2,1 4,2 5,3 9,6 8,21 -1,26 -1,1 -2,1 -2,2zm-18 -20c0,0 0,0 0,1 -1,0 -3,-1 -4,0 -1,0 -2,0 -2,2 0,1 0,3 0,5 0,2 0,2 2,2 2,0 5,0 7,0 1,0 2,0 3,-1 3,-2 2,-6 0,-8 -1,0 -2,0 -2,0 -2,-1 -3,-1 -4,-1z"/>
   <path class="fil0" d="M852 114c0,-7 0,-15 0,-22 0,-1 0,-2 0,-3 0,-3 0,-4 3,-4 8,0 15,0 23,1 5,0 10,1 15,5 8,6 12,16 11,27 -2,13 -11,22 -21,24 -3,1 -5,1 -7,1 -7,0 -14,0 -20,0 -4,0 -4,0 -4,-4 0,-9 0,-17 0,-25zm18 0c0,4 0,7 0,11 0,1 0,2 0,2 0,1 1,2 2,2 4,1 7,0 10,-5 1,0 1,-1 1,-2 2,-6 2,-11 0,-16 -3,-6 -7,-7 -11,-7 -1,0 -2,1 -2,2 0,1 0,2 0,2 0,4 0,7 0,11z"/>
   <path class="fil0" d="M1100 110c0,4 0,8 0,11 0,4 0,7 0,11 0,3 1,7 0,10 -1,1 -1,1 -2,1 -3,0 -7,0 -10,0 -2,0 -2,-1 -2,-2 -1,-1 -1,-2 -1,-3 0,-16 0,-32 0,-47 0,-1 0,-2 1,-3 0,-2 0,-2 1,-2 1,0 1,-1 2,-1 3,0 7,1 11,0 2,0 3,1 4,3 2,3 4,6 6,9 4,6 7,11 10,16 0,0 1,1 1,1 0,-1 0,-2 0,-2 0,-5 0,-9 0,-14 0,-3 0,-6 0,-10 0,-2 0,-2 2,-2 4,-1 7,0 11,0 0,0 0,0 1,0 1,1 1,2 1,4 0,3 0,6 0,9 0,13 0,26 0,39 0,1 0,2 -1,4 0,0 0,1 -1,1 -1,0 -1,0 -2,0 -3,0 -6,0 -9,0 -2,0 -3,0 -4,-2 -1,-2 -2,-4 -4,-6 -3,-5 -6,-10 -9,-16 -2,-2 -3,-4 -5,-7 0,-1 0,-1 -1,-2z"/>
   <path class="fil0" d="M828 114c0,-8 0,-16 0,-24 0,-4 0,-5 4,-5 3,0 6,0 9,1 1,0 2,0 2,2 0,1 0,2 0,3 0,15 0,31 0,47 0,1 0,2 0,3 0,1 -1,2 -2,2 -2,0 -4,0 -6,0 -1,0 -3,0 -4,0 -2,0 -3,-1 -4,-2 -2,-3 -4,-6 -6,-9 -3,-5 -6,-9 -9,-14 -1,-2 -2,-5 -3,-7 -1,0 -1,-1 -2,-2 1,6 1,11 1,17 0,4 0,8 0,12 0,1 0,2 0,2 0,2 -1,3 -2,3 -1,0 -1,0 -1,0 -3,0 -6,0 -10,0 -1,0 -2,-1 -2,-3 0,0 0,-1 0,-2 0,-16 0,-32 0,-48 0,-1 0,-3 1,-4 0,0 1,-1 2,-1 4,0 8,1 11,0 2,0 4,1 5,3 5,8 10,16 15,25 1,0 1,1 1,1z"/>
   <path class="fil0" d="M1209 144c-3,0 -7,0 -11,-2 -9,-4 -15,-11 -16,-23 -1,-4 -1,-9 0,-13 3,-11 9,-18 20,-21 6,-1 13,-1 20,2 8,4 13,11 15,21 0,4 0,8 -1,13 -2,11 -7,18 -17,21 -1,1 -3,1 -4,2 -2,0 -4,0 -6,0zm-8 -29c0,3 0,7 2,10 1,4 3,5 7,5 3,0 5,-2 6,-5 0,-1 0,-2 1,-3 0,-4 0,-8 0,-12 0,-2 0,-4 -1,-6 -1,-4 -4,-6 -8,-5 -2,0 -3,1 -4,3 -1,1 -2,3 -2,4 -1,3 -1,6 -1,9z"/>
   <path class="fil0" d="M938 215c0,0 0,1 0,1 0,5 0,9 0,14 0,2 -1,2 -3,3 0,0 -1,0 -2,0 -14,0 -28,0 -42,0 -5,0 -5,0 -5,-6 0,-21 0,-42 0,-63 0,-6 0,-6 5,-6 5,0 9,0 13,0 1,0 1,0 2,0 3,1 3,1 3,4 0,1 0,2 0,3 0,15 0,29 0,44 0,1 0,2 0,4 0,0 1,1 2,1 1,0 2,0 3,0 6,0 13,0 20,0 1,0 2,0 4,1z"/>
   <path class="fil0" d="M1288 99c-1,0 -1,0 -2,1 -4,1 -7,2 -11,3 -1,0 -2,0 -3,-1 -2,-4 -6,-5 -10,-4 0,0 -1,0 -1,0 -1,0 -2,1 -3,3 0,1 1,2 3,3 1,0 3,1 4,1 4,1 7,2 10,3 2,0 3,0 5,1 5,2 9,7 10,13 0,7 -2,12 -7,16 -4,3 -8,5 -13,6 -5,0 -11,0 -16,-1 -5,-1 -9,-4 -13,-8 -1,-2 -2,-4 -3,-6 0,-1 0,-2 0,-2 1,-1 1,-1 2,-1 4,-1 8,-2 12,-2 1,-1 2,0 3,1 2,4 5,5 8,5 2,0 3,0 5,0 1,0 2,-1 2,-1 1,-1 2,-3 1,-4 -1,-1 -2,-1 -3,-2 -2,0 -3,-1 -5,-1 -4,-1 -7,-2 -11,-3 -1,0 -3,-1 -4,-2 -8,-4 -10,-16 -4,-24 2,-3 4,-5 7,-6 3,-1 6,-2 10,-2 4,0 8,-1 12,1 4,1 7,2 10,5 2,2 4,4 5,8z"/>
   <path class="fil0" d="M1054 99c0,1 0,1 0,1 -1,8 0,7 5,7 4,0 8,0 12,0 3,0 4,0 4,4 0,3 0,6 -1,8 -1,2 -2,1 -3,1 -4,0 -8,0 -13,0 -1,0 -1,0 -2,0 -1,1 -2,1 -2,2 0,2 0,4 0,6 0,0 1,1 1,1 1,0 2,0 3,0 6,0 12,0 17,0 5,0 5,0 5,5 0,2 0,5 0,7 0,1 -1,2 -2,2 -1,0 -2,0 -3,0 -11,0 -23,0 -35,0 -4,0 -4,0 -4,-5 0,-16 0,-32 0,-48 0,-1 -1,-3 0,-4 1,0 2,-1 3,-1 12,0 25,0 37,0 4,0 4,1 4,5 0,2 0,4 0,6 0,2 -1,3 -3,3 -1,0 -2,0 -3,0 -5,0 -11,0 -17,0 -1,0 -2,-1 -3,0z"/>
   <path class="fil0" d="M551 98c-1,1 -3,1 -4,1 -5,0 -11,0 -16,0 -1,0 -2,0 -2,0 -3,0 -4,0 -4,4 0,0 0,1 0,2 0,1 1,2 2,2 1,0 2,0 3,0 4,0 8,0 13,0 3,0 4,0 4,4 0,2 0,5 0,7 -1,1 -1,2 -2,2 -1,0 -2,0 -3,0 -5,0 -9,0 -13,0 -3,0 -4,1 -4,4 0,1 0,2 0,4 0,0 1,1 2,1 1,0 2,0 2,0 6,0 12,0 18,0 4,0 5,0 5,5 0,2 0,4 0,6 -1,2 -1,3 -3,3 0,0 -1,0 -2,0 -12,0 -23,0 -35,0 -4,0 -5,0 -5,-5 0,-16 0,-32 0,-48 0,-4 1,-5 5,-5 12,0 23,0 35,0 4,0 5,1 5,5 0,2 0,4 0,5 0,1 -1,2 -1,3z"/>
   <path class="fil0" d="M787 86c0,0 0,1 0,1 0,3 0,6 0,9 0,2 0,3 -2,3 -1,0 -2,0 -2,0 -6,0 -12,0 -18,0 -4,0 -4,0 -4,4 0,0 0,0 0,0 0,3 0,4 4,4 4,0 8,0 13,0 1,0 3,0 4,1 0,3 0,9 0,12 -1,0 -3,0 -4,0 -4,0 -8,0 -13,0 -4,0 -4,1 -4,5 0,0 0,1 0,1 0,3 1,3 3,3 6,0 12,0 19,0 1,0 2,0 3,0 0,0 1,1 1,2 0,4 1,7 0,11 0,0 0,0 -1,1 0,0 -2,0 -3,0 -12,0 -24,0 -35,0 -5,0 -5,0 -5,-4 0,-17 0,-33 0,-49 0,-4 0,-5 4,-5 12,0 24,0 36,0 2,0 3,0 4,1z"/>
   <path class="fil0" d="M629 114c0,-8 0,-16 0,-24 0,-4 0,-5 4,-5 8,0 16,1 24,1 3,0 6,0 8,1 4,0 7,2 10,5 7,8 5,20 -2,25 -3,3 -7,5 -11,5 -3,0 -6,0 -10,0 -1,1 -2,0 -2,1 -2,0 -2,0 -2,2 0,1 0,2 0,2 0,4 0,8 0,12 0,1 0,2 -1,3 0,0 0,1 -1,1 0,0 -1,0 -1,0 -5,0 -9,0 -13,0 0,0 -1,0 -1,0 -1,0 -2,-1 -2,-1 0,-2 0,-3 0,-4 0,-8 0,-16 0,-24zm24 -15c0,0 0,0 0,0 -1,0 -3,0 -4,0 -1,0 -1,1 -1,2 0,2 0,5 0,7 0,1 0,1 1,1 3,1 5,1 8,0 2,-1 4,-3 4,-5 0,-2 -2,-4 -4,-4 -1,-1 -1,-1 -2,-1 -1,0 -1,0 -2,0z"/>
   <path class="fil0" d="M945 159c0,0 1,0 1,0 7,-1 13,0 19,0 0,0 1,0 1,0 1,1 1,2 1,2 0,2 0,3 0,4 0,20 0,41 0,61 0,2 0,3 0,4 0,2 -1,2 -3,3 0,0 0,0 -1,0 -5,0 -10,0 -15,0 -4,0 -4,-1 -4,-4 0,-5 0,-10 0,-15 0,-16 0,-33 0,-50 0,-2 0,-4 1,-5z"/>
   <path class="fil0" d="M853 159c1,0 2,-1 3,-1 5,0 10,0 15,0 1,0 1,0 1,0 3,1 3,1 3,3 0,1 0,2 0,3 0,21 0,42 0,63 0,6 0,6 -5,6 -4,0 -8,0 -13,0 0,0 -1,0 -1,0 -3,-1 -4,-1 -4,-4 0,-1 0,-2 0,-2 0,-21 0,-42 0,-63 0,-2 0,-3 1,-5z"/>
   <path class="fil0" d="M532 159c1,1 1,3 1,5 0,7 0,13 0,20 0,14 0,28 0,42 0,1 0,2 0,3 0,3 -1,3 -3,4 -1,0 -1,0 -1,0 -5,0 -10,0 -15,0 -1,0 -3,0 -4,-2 0,-1 0,-2 0,-3 0,-22 0,-43 0,-65 0,-4 0,-5 4,-5 5,0 10,0 15,0 1,0 2,0 3,1z"/>
   <path class="fil0" d="M1144 196c0,11 0,22 0,33 0,3 0,4 -4,4 -5,0 -10,0 -15,0 -1,0 -1,0 -1,0 -2,-1 -3,-1 -3,-4 0,-1 0,-1 0,-2 0,-21 0,-42 0,-62 0,-2 0,-3 0,-4 0,-2 1,-2 2,-2 0,-1 1,-1 1,-1 6,0 11,0 17,0 0,0 1,1 1,1 1,0 1,0 2,1 0,1 0,3 0,4 0,11 0,21 0,32l0 0z"/>
   <path class="fil0" d="M1140 86c1,0 2,-1 3,-1 11,0 22,0 33,0 4,0 4,1 4,5 0,2 0,4 0,6 0,3 0,4 -3,4 -2,0 -3,0 -5,0 -3,0 -4,0 -4,4 0,11 0,22 0,33 0,2 0,3 0,4 0,1 0,2 -2,2 0,0 -1,0 -2,0 -4,0 -7,0 -10,0 -2,0 -3,-1 -3,-3 0,-1 0,-2 0,-3 0,-11 0,-21 0,-32 0,-1 0,-2 0,-3 0,-1 -1,-2 -1,-2 -1,0 -3,0 -4,0 -2,0 -3,0 -5,0 -1,0 -2,-1 -2,-2 0,-4 0,-8 0,-11 0,-1 1,-1 1,-1z"/>
   <path class="fil0" d="M928 143c-4,0 -15,0 -18,0 0,-1 0,-2 0,-2 0,-2 0,-3 0,-4 0,-15 0,-30 0,-46 0,-1 0,-2 0,-4 0,-1 1,-1 2,-1 0,0 0,0 0,0 5,0 10,0 15,0 0,0 0,0 0,0 1,1 1,1 1,2 0,1 0,2 0,3 0,16 0,31 0,47 0,1 0,3 0,5z"/>
   <path class="fil0" d="M1009 143c-1,-2 0,-3 0,-5 0,-3 0,-7 0,-10 0,-12 0,-24 0,-36 0,-2 -1,-4 0,-6 1,0 2,0 3,-1 4,0 8,0 12,0 0,0 1,0 1,1 1,0 2,0 2,2 0,1 0,1 0,2 0,16 0,32 0,48 0,5 0,5 -4,5 -4,0 -7,0 -10,0 -1,0 -3,0 -4,0z"/>
  </g>
  <g id="_2931261369760">
   <g>
    <path class="fil1" d="M463 229c-1,1 -2,1 -3,1 -4,2 -8,3 -12,5 -24,8 -48,17 -71,25 -2,0 -3,1 -4,1 0,0 -1,0 -1,-1 0,-1 0,-1 0,-2 2,-8 3,-16 3,-23 0,-5 0,-10 0,-15 0,-7 -2,-14 -3,-21 0,-1 0,-1 0,-2 1,0 2,-1 2,0 1,0 2,0 3,0 19,7 38,14 58,21 8,3 16,6 24,9 1,0 2,0 2,1 1,0 1,0 2,1z"/>
    <g>
     <path class="fil1" d="M231 108c19,0 37,4 55,13 12,6 24,14 34,25 17,18 27,39 32,63 1,6 1,12 1,18 0,6 0,12 -1,19 -1,10 -4,20 -9,30 -5,12 -11,22 -20,32 -10,12 -23,21 -37,28 -10,6 -22,10 -34,12 -8,1 -16,2 -25,1 -21,-1 -41,-6 -59,-17 -24,-15 -41,-35 -51,-62 -4,-9 -6,-19 -7,-28 -2,-22 1,-42 9,-62 6,-11 12,-22 21,-31 14,-16 32,-28 52,-35 9,-3 18,-4 27,-5 4,-1 8,-1 12,-1zm66 118c1,-1 2,-1 3,-2 3,-2 5,-5 6,-9 1,-1 1,-3 1,-5 0,-8 -7,-15 -14,-16 -3,0 -5,-1 -7,-1 -10,0 -21,0 -31,0 -1,0 -2,0 -2,0 -1,0 -2,1 -2,2 0,1 0,2 0,3 0,19 0,39 0,59 0,5 0,5 4,5 9,0 18,0 27,0 4,0 9,-1 13,-1 5,-1 8,-4 11,-8 2,-4 3,-8 3,-13 -1,-5 -3,-9 -8,-12 -1,0 -2,0 -3,-1 0,0 0,0 -1,-1zm-140 1c0,0 0,0 0,0 0,10 0,20 0,30 0,1 0,2 0,3 0,1 1,1 2,2 1,0 2,0 3,0 14,0 28,0 42,0 0,0 1,0 2,0 2,0 3,-1 3,-3 0,-3 0,-6 0,-9 0,-4 0,-4 -5,-4 -7,0 -14,0 -21,0 -1,0 -2,0 -3,-1 -1,0 -2,0 -2,-1 0,-2 0,-4 0,-5 0,-5 0,-5 5,-5 5,0 10,0 15,0 1,0 2,0 3,0 1,0 1,-1 2,-2 0,0 0,0 0,-1 0,-3 0,-6 0,-9 0,0 0,0 0,-1 0,-1 -1,-1 -2,-2 -1,0 -2,0 -3,0 -5,0 -10,0 -15,0 -1,0 -2,0 -3,0 -1,0 -2,-1 -2,-2 0,-2 0,-4 0,-6 0,-1 1,-2 2,-2 1,0 2,0 3,0 7,0 14,0 21,0 1,0 1,0 2,0 2,0 3,-1 3,-3 0,-3 0,-5 0,-8 0,-5 0,-5 -5,-5 -14,0 -28,0 -42,0 -5,0 -5,0 -5,5 0,10 0,20 0,29zm82 1c0,-10 0,-19 0,-29 0,-1 0,-2 0,-3 0,-2 -1,-3 -3,-3 -5,0 -10,0 -15,0 0,0 -1,0 -1,0 -1,1 -2,1 -2,3 0,1 0,2 0,3 0,19 0,38 0,57 0,1 0,2 0,3 0,2 0,3 2,3 1,0 2,0 3,0 3,0 7,0 11,0 5,0 5,0 5,-5 0,-10 0,-20 0,-29z"/>
     <path class="fil1" d="M354 153c-1,-1 -2,-1 -2,-2 -3,-4 -6,-8 -9,-12 -8,-10 -17,-18 -26,-25 -3,-1 -5,-3 -7,-5 -1,0 -2,-1 -2,-2 0,0 1,-1 1,-1 3,-1 5,-2 8,-4 12,-5 24,-11 37,-17 12,-5 24,-11 36,-17 1,0 3,-1 4,-1 1,-1 1,0 1,1 0,1 0,1 -1,2 -2,5 -4,9 -6,14 -7,13 -13,26 -19,40 -4,8 -8,16 -12,23 0,2 -1,5 -3,6z"/>
     <path class="fil1" d="M308 351c0,-2 1,-2 2,-3 5,-3 9,-7 13,-10 8,-6 14,-13 20,-20 3,-4 6,-7 9,-11 0,-1 1,-2 2,-2 1,0 1,1 2,2 3,6 6,13 9,19 4,9 9,18 13,27 5,11 11,23 16,35 1,0 1,1 1,1 0,1 0,2 -1,2 -1,-1 -2,-1 -3,-1 -5,-3 -10,-5 -16,-8 -14,-6 -28,-13 -42,-19 -7,-4 -15,-8 -23,-11 -1,0 -1,-1 -2,-1z"/>
     <path class="fil1" d="M109 305c1,0 1,1 2,2 4,5 7,10 11,14 5,7 11,12 17,17 5,3 9,7 13,10 1,1 2,1 2,2 0,1 -1,2 -2,2 -4,2 -8,4 -12,6 -12,5 -23,10 -34,16 -12,5 -24,10 -35,16 -1,0 -2,0 -3,1 0,0 -1,-1 -1,-1 1,-1 1,-2 1,-2 1,-3 3,-6 4,-9 6,-13 12,-26 19,-38 5,-12 10,-23 15,-34 1,-1 1,-2 3,-2z"/>
     <path class="fil1" d="M90 196c1,2 0,3 0,4 -1,5 -1,10 -2,16 0,1 0,3 0,5 0,6 -1,12 0,18 0,6 1,12 2,18 0,1 0,2 1,3 0,1 -1,1 -2,1 -1,0 -2,0 -3,-1 -9,-3 -19,-7 -29,-10 -12,-4 -24,-9 -35,-13 -7,-2 -13,-4 -19,-6 -1,-1 -2,-1 -3,-2 0,-1 1,-1 2,-2 2,-1 5,-2 8,-3 25,-9 51,-18 76,-27 1,0 3,-1 4,-1z"/>
     <path class="fil1" d="M155 107c-1,2 -2,2 -3,3 -4,3 -9,6 -13,10 -10,8 -18,17 -25,27 -2,1 -3,3 -4,5 0,0 -1,1 -1,1 -2,0 -2,-1 -2,-2 -3,-5 -5,-9 -7,-14 -5,-11 -10,-21 -15,-32 -5,-11 -11,-23 -16,-34 -1,-1 -2,-2 -2,-4 1,0 1,0 2,0 1,0 1,0 2,1 9,4 18,8 27,12 17,8 34,16 52,24 1,1 2,1 3,2 1,0 1,1 2,1z"/>
     <path class="fil1" d="M198 368c1,0 2,0 3,0 4,1 8,1 13,2 9,1 18,1 27,1 7,-1 13,-2 20,-3 1,0 2,0 2,0 1,1 1,2 0,3 -1,4 -3,9 -4,13 -6,15 -11,30 -17,45 -3,8 -6,16 -9,25 0,1 -1,2 -2,3 -1,0 -1,-1 -1,-1 -1,-3 -2,-6 -3,-8 -9,-26 -19,-51 -28,-76 0,-1 -1,-2 -1,-4z"/>
     <path class="fil1" d="M264 89c-2,1 -3,0 -4,0 -7,-1 -15,-2 -22,-2 -12,-1 -24,0 -35,2 -2,0 -3,1 -4,1 0,-1 0,-2 0,-2 1,-3 1,-5 2,-7 9,-24 17,-47 26,-70 1,-3 2,-6 3,-9 0,0 1,-1 1,-2 1,1 1,1 1,2 1,2 2,5 3,7 8,22 16,44 24,66 2,4 3,7 4,11 0,1 1,2 1,3z"/>
     <path class="fil1" d="M278 246c-2,0 -4,0 -5,0 -2,0 -2,0 -2,-2 0,-3 0,-5 0,-8 0,-1 0,-2 2,-2 3,0 7,-1 11,0 3,1 5,4 4,7 0,3 -2,5 -5,5 -2,1 -4,1 -5,1 0,0 0,-1 0,-1z"/>
     <path class="fil1" d="M278 208c1,0 2,0 4,0 3,0 5,2 5,5 0,3 -2,6 -5,6 0,0 0,0 0,0 -3,1 -6,1 -9,1 -2,-1 -2,-1 -2,-3 0,-2 0,-4 0,-7 0,-1 0,-2 2,-2 1,0 3,0 5,0 0,0 0,0 0,0z"/>
    </g>
   </g>
  </g>
 </g>
</svg>
